<svg width="60" height="60" viewBox="0 0 60 60" fill="none" xmlns="http://www.w3.org/2000/svg">
<g clip-path="url(#clip0_3536_18826)">
<path d="M31.8899 33.3002C34.2743 32.1375 35.5346 30.6096 35.5346 28.8816C35.5346 27.0411 34.1218 25.5439 32.3854 25.5439C30.649 25.5439 29.2363 27.0413 29.2363 28.8816C29.2363 29.3651 29.6284 29.7572 30.1119 29.7572C30.5956 29.7572 30.9876 29.3651 30.9876 28.8816C30.9876 28.0068 31.6146 27.2952 32.3854 27.2952C33.1563 27.2952 33.7834 28.0069 33.7834 28.8816C33.7834 30.2275 32.1162 31.2414 31.1224 31.726C30.0557 32.2463 29.3664 33.3484 29.3664 34.534C29.3664 35.0176 29.7584 35.4096 30.242 35.4096H34.659C35.1427 35.4096 35.5346 35.0176 35.5346 34.534C35.5346 34.0504 35.1427 33.6584 34.659 33.6584H31.4356C31.5582 33.5102 31.7122 33.3868 31.8899 33.3002Z" fill="#0F172A"/>
<path d="M41.8836 35.4096C42.3673 35.4096 42.7592 35.0175 42.7592 34.534V26.4194C42.7592 25.9359 42.3673 25.5438 41.8836 25.5438C41.3999 25.5438 41.008 25.9359 41.008 26.4194V29.613H38.6176L39.7387 26.7373C39.9143 26.2868 39.6914 25.7792 39.2407 25.6036C38.7904 25.4279 38.2826 25.6507 38.1069 26.1014L36.5207 30.1707C36.4157 30.4402 36.4504 30.7441 36.6138 30.9828C36.7769 31.2216 37.0475 31.3643 37.3365 31.3643H41.0078V34.534C41.008 35.0177 41.3999 35.4096 41.8836 35.4096Z" fill="#0F172A"/>
<path d="M50.9576 9.1537C45.1269 3.32289 37.3746 0.111938 29.129 0.111938C29.1287 0.111938 29.1287 0.111938 29.1285 0.111938C24.9673 0.111938 20.9187 0.932452 17.0956 2.55048C16.113 2.96634 15.405 3.83787 15.2014 4.88196C14.9993 5.9187 15.325 6.98403 16.0726 7.73158C16.9934 8.6525 18.357 8.92102 19.5467 8.41573C22.5915 7.1225 25.8155 6.46683 29.1291 6.46683C35.6773 6.46683 41.8336 9.01699 46.4639 13.6473C51.0943 18.2777 53.6444 24.434 53.6444 30.9822C53.6444 34.296 52.9888 37.52 51.6955 40.5646C51.1904 41.7542 51.4589 43.1179 52.3797 44.0387C52.9813 44.6403 53.7885 44.9687 54.6212 44.9686C54.8231 44.9686 55.0268 44.9492 55.2292 44.9099C56.2733 44.7064 57.1449 43.9983 57.5609 43.0156C59.1789 39.192 59.9995 35.1434 59.9993 30.9823C59.9993 22.7367 56.7884 14.9844 50.9576 9.1537ZM55.948 42.3331C55.7568 42.7851 55.3726 43.0977 54.8942 43.191C54.4233 43.2823 53.9581 43.1405 53.6179 42.8004C53.2047 42.3871 53.0826 41.7782 53.3074 41.2492C54.6931 37.9869 55.3957 34.5325 55.3957 30.9822C55.3957 23.9661 52.6635 17.37 47.7024 12.409C42.7412 7.44799 36.1453 4.71571 29.1292 4.71559C25.5791 4.71559 22.1247 5.41819 18.8622 6.80389C18.3334 7.02851 17.7244 6.90674 17.311 6.49333C16.9709 6.15324 16.8286 5.68812 16.9204 5.21715C17.0137 4.73859 17.3263 4.35449 17.7783 4.16325C21.3845 2.63711 25.2035 1.86318 29.1291 1.86329C36.907 1.86329 44.2194 4.89212 49.7193 10.3921C55.2194 15.892 58.2483 23.2045 58.2482 30.9824C58.2481 34.9078 57.4744 38.7267 55.948 42.3331Z" fill="#0F172A"/>
<path d="M43.2781 41.2683C46.9094 38.9059 49.1271 34.8643 49.1271 30.4887C49.1271 27.7658 48.2857 25.1632 46.6939 22.9623C46.4103 22.5702 45.8631 22.4825 45.4712 22.7659C45.0793 23.0492 44.9915 23.5967 45.2748 23.9885C46.6492 25.8889 47.3757 28.1367 47.3757 30.4887C47.3757 34.3932 45.3312 37.9901 42.0077 39.9982L40.3189 38.3094C39.071 37.0616 37.0407 37.0617 35.7927 38.3094L32.9987 41.1033C28.3708 39.6793 25.1632 35.3583 25.1632 30.4887C25.1632 24.3648 30.1454 19.3826 36.2694 19.3826C38.5167 19.3826 40.6814 20.0506 42.5297 21.3145C42.9291 21.5874 43.4738 21.485 43.7468 21.0859C44.0198 20.6867 43.9174 20.1418 43.5182 19.8689C41.3775 18.4051 38.8709 17.6314 36.2694 17.6314C29.1798 17.6314 23.412 23.3991 23.412 30.4887C23.412 35.8189 26.7326 40.5815 31.6238 42.4783L31.0801 43.022C29.8323 44.2699 29.8324 46.3003 31.0801 47.5481L32.4511 48.9191L29.4959 49.8745C28.6164 50.159 27.6638 49.9296 27.01 49.2759L10.612 32.8775C9.95817 32.2237 9.72888 31.2712 10.0134 30.3915L10.9688 27.4364L12.3397 28.8074C12.9443 29.412 13.748 29.7448 14.6028 29.7448C15.4576 29.7448 16.2615 29.4118 16.8659 28.8074L21.5785 24.0948C22.8263 22.847 22.8263 20.8166 21.5785 19.5687L17.4441 15.4344C17.1022 15.0924 16.5477 15.0924 16.2059 15.4344C15.8639 15.7763 15.8639 16.3308 16.2059 16.6726L20.3402 20.8069C20.9053 21.372 20.9053 22.2914 20.3402 22.8565L17.5964 25.6003L5.68316 13.6872L8.427 10.9434C8.99207 10.3783 9.91159 10.3783 10.4767 10.9434L13.2838 13.7505C13.6257 14.0925 14.1802 14.0925 14.522 13.7505C14.864 13.4086 14.864 12.8541 14.522 12.5123L11.7149 9.70515C10.4671 8.45733 8.43658 8.45733 7.18865 9.70515L2.47618 14.4177C1.22836 15.6655 1.22836 17.696 2.47618 18.944L3.1155 19.5833L2.45026 21.6409C2.30152 22.101 2.55393 22.5946 3.01404 22.7434C3.10359 22.7723 3.1943 22.7861 3.28362 22.7861C3.65325 22.7861 3.99672 22.5501 4.11662 22.1796L4.50633 20.9741L9.57792 26.0457L8.34703 29.8527C7.85914 31.3612 8.25247 32.9948 9.37361 34.1159L25.772 50.5143C26.5749 51.3171 27.6407 51.7469 28.7351 51.7469C29.1688 51.7469 29.607 51.6794 30.0351 51.541L33.8421 50.3101L38.9137 55.3817L31.9994 57.6172C28.198 58.8463 24.0817 57.8548 21.2566 55.0297L4.85821 38.6313C2.03312 35.8062 1.04168 31.6897 2.27082 27.8883L2.85141 26.0924C3.00015 25.6323 2.74774 25.1387 2.28763 24.99C1.82764 24.8411 1.33391 25.0936 1.18517 25.5537L0.604573 27.3496C-0.827823 31.7797 0.327527 36.5772 3.61997 39.8695L20.0183 56.2679C22.3764 58.6261 25.5065 59.8879 28.7209 59.8879C29.9943 59.8879 31.2813 59.6898 32.5383 59.2834L40.3047 56.7724L40.944 57.4117C41.5485 58.0162 42.3522 58.3491 43.2072 58.3491C44.062 58.3491 44.8657 58.0161 45.4703 57.4117L50.1828 52.6991C51.4307 51.4512 51.4307 49.4208 50.1828 48.173L43.2781 41.2683ZM3.71442 15.656L4.44481 14.9256L16.358 26.8387L15.6275 27.5692C15.3537 27.843 14.9898 27.9937 14.6028 27.9937C14.2157 27.9937 13.8518 27.843 13.578 27.5692L3.71442 17.7056C3.14936 17.1404 3.14936 16.221 3.71442 15.656ZM43.2072 56.5979C42.82 56.5979 42.456 56.4472 42.1825 56.1734L32.3189 46.3099C31.7539 45.7448 31.7539 44.8254 32.3189 44.2604L33.0493 43.53L44.9624 55.4429L44.2319 56.1734C43.9581 56.4472 43.5942 56.5979 43.2072 56.5979ZM48.9444 51.4609L46.2006 54.2046L34.2875 42.2916L37.0314 39.5478C37.3139 39.2652 37.6851 39.124 38.0561 39.124C38.4271 39.124 38.7983 39.2652 39.0808 39.5478L48.9442 49.4113C49.5094 49.9764 49.5094 50.8958 48.9444 51.4609Z" fill="#0F172A"/>
<path d="M25.6807 15.1249C25.1971 15.1249 24.805 15.5169 24.805 16.0005V16.6037H24.2018C23.7182 16.6037 23.3262 16.9958 23.3262 17.4794C23.3262 17.9629 23.7182 18.355 24.2018 18.355H24.805V18.9582C24.805 19.4418 25.1971 19.8338 25.6807 19.8338C26.1642 19.8338 26.5563 19.4418 26.5563 18.9582V18.355H27.1595C27.6431 18.355 28.0351 17.9629 28.0351 17.4794C28.0351 16.9958 27.6431 16.6037 27.1595 16.6037H26.5563V16.0005C26.5563 15.5169 26.1642 15.1249 25.6807 15.1249Z" fill="#0F172A"/>
</g>
<defs>
<clipPath id="clip0_3536_18826">
<rect width="60" height="60" fill="white"/>
</clipPath>
</defs>
</svg>
