<svg xmlns="http://www.w3.org/2000/svg" width="60" height="60" viewBox="0 0 60 60" fill="none">
  <path d="M58.1809 58.9091H1.81729C1.27184 58.9091 0.908203 58.5455 0.908203 58V52.3637C0.908203 51.8182 1.27184 51.4546 1.81729 51.4546H58.1809C58.7264 51.4546 59.09 51.8182 59.09 52.3637V58C59.09 58.5455 58.7264 58.9091 58.1809 58.9091ZM2.72638 57.0909H57.2718V53.2727H2.72638V57.0909Z" fill="#0F172A"/>
  <path d="M18.3627 27.4546C14.2718 27.4546 10.9082 24.0909 10.9082 20C10.9082 19.5455 10.9991 19 11.09 18.5455C11.1809 18.0909 11.6355 17.7273 12.1809 17.8182C12.6355 17.9091 12.9991 18.3636 12.9082 18.9091C12.7264 19.2727 12.7264 19.6364 12.7264 20C12.7264 23.0909 15.2718 25.6364 18.3627 25.6364C21.4537 25.6364 23.9991 23.0909 23.9991 20C23.9991 19.6364 23.9991 19.3636 23.9082 19C23.8173 18.5455 24.1809 18 24.6355 17.9091C25.09 17.8182 25.6355 18.1818 25.7264 18.6364C25.8173 19.0909 25.8173 19.5455 25.8173 19.9091C25.7264 24.0909 22.4537 27.4546 18.3627 27.4546Z" fill="#0F172A"/>
  <path d="M18.1804 20.1818C15.4531 20.1818 12.8168 19.9091 10.1804 19.3636C9.72585 19.2727 9.45312 18.9091 9.45312 18.4545V9C9.45312 8.72727 9.63494 8.45454 9.81676 8.27272C10.0895 8.09091 10.3622 8.09091 10.6349 8.18181L18.0895 11.0909L25.9077 8.18181C26.1804 8.09091 26.544 8.09091 26.7259 8.27272C26.9986 8.45454 27.0895 8.72727 27.0895 9V18.4545C27.0895 18.9091 26.8168 19.2727 26.3622 19.3636C23.6349 19.9091 20.9077 20.1818 18.1804 20.1818ZM11.2713 17.7273C15.8168 18.5455 20.544 18.5455 25.3622 17.7273V10.2727L18.4531 12.8182C18.2713 12.9091 17.9986 12.9091 17.8168 12.8182L11.2713 10.2727V17.7273Z" fill="#0F172A"/>
  <path d="M5.36222 14.4546C4.81676 14.4546 4.45312 14.0909 4.45312 13.5455V7.18183C4.45312 6.63637 4.81676 6.27274 5.36222 6.27274C5.90767 6.27274 6.27131 6.63637 6.27131 7.18183V13.5455C6.27131 14 5.81676 14.4546 5.36222 14.4546Z" fill="#0F172A"/>
  <path d="M18.1804 12.9091C18.0895 12.9091 17.9986 12.9091 17.8168 12.8182L4.99858 7.81819C4.63494 7.72728 4.45312 7.36365 4.45312 7.00001C4.45312 6.63637 4.72585 6.27274 4.99858 6.18183L17.8168 1.18183C17.9986 1.09092 18.2713 1.09092 18.4531 1.18183L31.2713 6.18183C31.6349 6.27274 31.8168 6.63637 31.8168 7.00001C31.8168 7.36365 31.544 7.72728 31.2713 7.81819L18.4531 12.8182C18.3622 12.9091 18.2713 12.9091 18.1804 12.9091ZM7.81676 7.00001L18.1804 11L28.544 7.00001L18.1804 3.00001L7.81676 7.00001Z" fill="#0F172A"/>
  <path d="M18.1804 8.09092H5.36222C4.81676 8.09092 4.45312 7.72728 4.45312 7.18183C4.45312 6.63637 4.81676 6.27274 5.36222 6.27274H18.1804C18.7259 6.27274 19.0895 6.63637 19.0895 7.18183C19.0895 7.72728 18.6349 8.09092 18.1804 8.09092Z" fill="#0F172A"/>
  <path d="M5.36346 19C3.63619 19 2.18164 17.5455 2.18164 15.8182C2.18164 14.0909 3.63619 12.6364 5.36346 12.6364C7.09073 12.6364 8.54528 14.0909 8.54528 15.8182C8.54528 17.5455 7.09073 19 5.36346 19ZM5.36346 14.4546C4.63619 14.4546 3.99982 15.0909 3.99982 15.8182C3.99982 16.5455 4.63619 17.1818 5.36346 17.1818C6.09073 17.1818 6.7271 16.5455 6.7271 15.8182C6.7271 15.0909 6.09073 14.4546 5.36346 14.4546Z" fill="#0F172A"/>
  <path d="M18.3632 35.0909C18.0904 35.0909 17.8177 34.9091 17.6359 34.7273L13.9086 29.4546C9.99952 30 7.8177 31.5455 7.18134 34.2727C7.09043 34.7273 6.54497 35.0909 6.09043 34.9091C5.63588 34.8182 5.27225 34.2727 5.45406 33.8182C6.36316 30.2727 9.27225 28.1818 14.2722 27.5455C14.6359 27.5455 14.9086 27.6364 15.0904 27.9091L18.4541 32.5455L21.8177 27.9091C21.9995 27.6364 22.3632 27.4546 22.6359 27.5455C27.6359 28.1818 30.545 30.1818 31.4541 33.7273C31.545 34.1818 31.2722 34.7273 30.8177 34.8182C30.3632 34.9091 29.8177 34.6364 29.7268 34.1818C28.9995 31.5455 26.9086 30 22.9995 29.4546L19.0904 34.7273C18.9086 35 18.6359 35.0909 18.3632 35.0909Z" fill="#0F172A"/>
  <path d="M30.7255 53.2727C30.18 53.2727 29.8164 52.8182 29.8164 52.3637C29.8164 51.6364 29.8164 50.4546 29.8164 48.5455C29.8164 48 30.18 47.6364 30.7255 47.6364C31.271 47.6364 31.6346 48.0909 31.6346 48.5455V52.3637C31.6346 52.9091 31.18 53.2727 30.7255 53.2727Z" fill="#0F172A"/>
  <path d="M5.99893 53.2727C5.54439 53.2727 5.08984 52.9091 5.08984 52.3637C5.08984 51.7273 5.08984 50.2727 5.08984 48.5455C5.08984 48 5.45348 47.6364 5.99893 47.6364C6.54439 47.6364 6.90803 48 6.90803 48.5455V52.3637C6.90803 52.8182 6.45348 53.2727 5.99893 53.2727Z" fill="#0F172A"/>
  <path d="M18.362 53.2727C18.2711 53.2727 18.1802 53.2727 18.0893 53.2727L4.27113 48.7273C3.90749 48.5455 3.63477 48.1818 3.63477 47.8182V44.3637C3.63477 43.8182 3.9984 43.4546 4.54386 43.4546C5.08931 43.4546 5.45295 43.8182 5.45295 44.3637V47.1818L17.4529 51.0909V39L5.45295 35V38.9091C5.45295 39.4546 5.08931 39.8182 4.54386 39.8182C3.9984 39.8182 3.63477 39.4546 3.63477 38.9091V33.8182C3.63477 33.5455 3.81658 33.2728 3.9984 33.0909C4.27113 32.9091 4.54386 32.9091 4.81658 33L18.6348 37.5455C18.9984 37.6364 19.2711 38 19.2711 38.4546V52.5455C19.2711 52.8182 19.0893 53.0909 18.9075 53.2727C18.7257 53.1818 18.5439 53.2727 18.362 53.2727Z" fill="#0F172A"/>
  <path d="M18.3622 53.2727C18.1804 53.2727 17.9986 53.1818 17.8168 53.0909C17.544 52.9091 17.4531 52.6364 17.4531 52.3637V38.2727C17.4531 37.9091 17.7259 37.5455 18.0895 37.3637L31.9077 32.8182C32.1804 32.7273 32.4531 32.8182 32.7259 32.9091C32.9986 33.0909 33.0895 33.3637 33.0895 33.6364V38.7273C33.0895 39.2727 32.7259 39.6364 32.1804 39.6364C31.6349 39.6364 31.2713 39.2727 31.2713 38.7273V34.8182L19.2713 38.7273V50.8182L31.2713 46.9091V44.0909C31.2713 43.5455 31.6349 43.1818 32.1804 43.1818C32.7259 43.1818 33.0895 43.5455 33.0895 44.0909V47.5455C33.0895 47.9091 32.8168 48.2727 32.4531 48.4546L18.6349 53C18.544 53.2727 18.4531 53.2727 18.3622 53.2727Z" fill="#0F172A"/>
  <path d="M32.0895 45.2727C30.0895 45.2727 28.4531 43.6364 28.4531 41.6364C28.4531 39.6364 30.0895 38 32.0895 38C34.0895 38 35.7259 39.6364 35.7259 41.6364C35.7259 43.6364 34.0895 45.2727 32.0895 45.2727ZM32.0895 39.8182C31.0895 39.8182 30.2713 40.6364 30.2713 41.6364C30.2713 42.6364 31.0895 43.4545 32.0895 43.4545C33.0895 43.4545 33.9077 42.6364 33.9077 41.6364C33.9077 40.6364 33.0895 39.8182 32.0895 39.8182Z" fill="#0F172A"/>
  <path d="M4.54457 45.2727C2.54457 45.2727 0.908203 43.6364 0.908203 41.6364C0.908203 39.6364 2.54457 38 4.54457 38C6.54457 38 8.18093 39.6364 8.18093 41.6364C8.18093 43.6364 6.54457 45.2727 4.54457 45.2727ZM4.54457 39.8182C3.54457 39.8182 2.72638 40.6364 2.72638 41.6364C2.72638 42.6364 3.54457 43.4545 4.54457 43.4545C5.54457 43.4545 6.36275 42.6364 6.36275 41.6364C6.36275 40.6364 5.54457 39.8182 4.54457 39.8182Z" fill="#0F172A"/>
  <path d="M54.8164 53.2727C54.271 53.2727 53.9073 52.9091 53.9073 52.3637C53.9073 51.8182 54.271 51.4546 54.8164 51.4546C56.18 51.4546 57.271 50.3637 57.271 49C57.271 47.6364 56.18 46.5455 54.8164 46.5455H39.6346V52.2727C39.6346 52.8182 39.271 53.1818 38.7255 53.1818C38.18 53.1818 37.8164 52.8182 37.8164 52.2727V45.6364C37.8164 45.0909 38.18 44.7273 38.7255 44.7273H54.9073C57.271 44.7273 59.18 46.6364 59.18 49C59.18 51.3637 57.18 53.2727 54.8164 53.2727Z" fill="#0F172A"/>
  <path d="M58.1811 46.6364H41.9993C39.6357 46.6364 37.7266 44.7273 37.7266 42.3636C37.7266 40 39.6357 38.0909 41.9993 38.0909H58.1811C58.7266 38.0909 59.0902 38.4545 59.0902 39V45.6364C59.0902 46.1818 58.7266 46.6364 58.1811 46.6364ZM41.9993 39.9091C40.6357 39.9091 39.5447 41 39.5447 42.3636C39.5447 43.7273 40.6357 44.8182 41.9993 44.8182H57.272V40H41.9993V39.9091Z" fill="#0F172A"/>
  <path d="M54.8164 39.9091H38.7255C38.18 39.9091 37.8164 39.5455 37.8164 39V32.3637C37.8164 31.8182 38.18 31.4546 38.7255 31.4546H54.9073C57.271 31.4546 59.18 33.3637 59.18 35.7273C59.0891 38 57.18 39.9091 54.8164 39.9091ZM39.6346 38.0909H54.9073C56.271 38.0909 57.3619 37 57.3619 35.6364C57.3619 34.2727 56.271 33.1818 54.9073 33.1818H39.6346V38.0909Z" fill="#0F172A"/>
  <path d="M52.0891 36.5455H38.7255C38.18 36.5455 37.8164 36.1818 37.8164 35.6364C37.8164 35.0909 38.18 34.7273 38.7255 34.7273H52.0891C52.6346 34.7273 52.9982 35.0909 52.9982 35.6364C52.9982 36.1818 52.5437 36.5455 52.0891 36.5455Z" fill="#0F172A"/>
  <path d="M58.1809 43.2727H44.8173C44.2718 43.2727 43.9082 42.9091 43.9082 42.3637C43.9082 41.8182 44.2718 41.4546 44.8173 41.4546H58.1809C58.7264 41.4546 59.09 41.8182 59.09 42.3637C59.09 42.9091 58.7264 43.2727 58.1809 43.2727Z" fill="#0F172A"/>
  <path d="M52.2727 49.9091H38.9091C38.3636 49.9091 38 49.5455 38 49C38 48.4546 38.3636 48.0909 38.9091 48.0909H52.2727C52.8182 48.0909 53.1818 48.4546 53.1818 49C53.1818 49.5455 52.8182 49.9091 52.2727 49.9091Z" fill="#0F172A"/>
  <path d="M45.9089 23.3636C39.9998 23.3636 35.1816 18.5455 35.1816 12.6364C35.1816 6.72727 39.9998 1.90909 45.9089 1.90909C51.818 1.90909 56.6362 6.72727 56.6362 12.6364C56.6362 18.5455 51.818 23.3636 45.9089 23.3636ZM45.9089 3.72727C40.9998 3.72727 36.9998 7.72727 36.9998 12.6364C36.9998 17.5455 40.9998 21.5455 45.9089 21.5455C50.818 21.5455 54.818 17.5455 54.818 12.6364C54.818 7.72727 50.818 3.72727 45.9089 3.72727Z" fill="#0F172A"/>
  <path d="M45.9089 13.5454H42.0907C41.5453 13.5454 41.1816 13.1818 41.1816 12.6364C41.1816 12.0909 41.5453 11.7273 42.0907 11.7273H45.5453L49.3635 7.90908C49.7271 7.54544 50.2726 7.54544 50.6362 7.90908C50.9998 8.27272 50.9998 8.81817 50.6362 9.18181L46.5453 13.2727C46.3635 13.4545 46.1816 13.5454 45.9089 13.5454Z" fill="#0F172A"/>
  <path d="M21.8173 45.2727C21.7264 45.2727 21.5446 45.2727 21.4537 45.1818C21.09 45 20.9082 44.7273 20.9082 44.3637V37.0909C20.9082 36.7273 21.1809 36.3637 21.5446 36.1818L25.8173 34.7273C26.09 34.6364 26.3627 34.7273 26.6355 34.8182C26.9082 35 26.9991 35.2727 26.9991 35.5455V43.3637C26.9991 43.6364 26.8173 44 26.5446 44.0909C26.2718 44.2727 25.9991 44.2727 25.6355 44.1818L24.09 43.6364L22.3627 45.0909C22.2718 45.1818 21.9991 45.2727 21.8173 45.2727ZM22.7264 37.8182V42.4546L23.3627 41.9091C23.6355 41.6364 23.9991 41.6364 24.3627 41.8182L25.1809 42.1818V37.0909L22.7264 37.8182Z" fill="#0F172A"/>
  <path d="M58.1809 58.9091H1.81729C1.27184 58.9091 0.908203 58.5455 0.908203 58V52.3637C0.908203 51.8182 1.27184 51.4546 1.81729 51.4546H58.1809C58.7264 51.4546 59.09 51.8182 59.09 52.3637V58C59.09 58.5455 58.7264 58.9091 58.1809 58.9091ZM2.72638 57.0909H57.2718V53.2727H2.72638V57.0909Z" fill="#0F172A"/>
  <path d="M18.3627 27.4546C14.2718 27.4546 10.9082 24.0909 10.9082 20C10.9082 19.5455 10.9991 19 11.09 18.5455C11.1809 18.0909 11.6355 17.7273 12.1809 17.8182C12.6355 17.9091 12.9991 18.3636 12.9082 18.9091C12.7264 19.2727 12.7264 19.6364 12.7264 20C12.7264 23.0909 15.2718 25.6364 18.3627 25.6364C21.4537 25.6364 23.9991 23.0909 23.9991 20C23.9991 19.6364 23.9991 19.3636 23.9082 19C23.8173 18.5455 24.1809 18 24.6355 17.9091C25.09 17.8182 25.6355 18.1818 25.7264 18.6364C25.8173 19.0909 25.8173 19.5455 25.8173 19.9091C25.7264 24.0909 22.4537 27.4546 18.3627 27.4546Z" fill="#0F172A"/>
  <path d="M18.1804 20.1818C15.4531 20.1818 12.8168 19.9091 10.1804 19.3636C9.72585 19.2727 9.45312 18.9091 9.45312 18.4545V9C9.45312 8.72727 9.63494 8.45454 9.81676 8.27272C10.0895 8.09091 10.3622 8.09091 10.6349 8.18181L18.0895 11.0909L25.9077 8.18181C26.1804 8.09091 26.544 8.09091 26.7259 8.27272C26.9986 8.45454 27.0895 8.72727 27.0895 9V18.4545C27.0895 18.9091 26.8168 19.2727 26.3622 19.3636C23.6349 19.9091 20.9077 20.1818 18.1804 20.1818ZM11.2713 17.7273C15.8168 18.5455 20.544 18.5455 25.3622 17.7273V10.2727L18.4531 12.8182C18.2713 12.9091 17.9986 12.9091 17.8168 12.8182L11.2713 10.2727V17.7273Z" fill="#0F172A"/>
  <path d="M5.36222 14.4546C4.81676 14.4546 4.45312 14.0909 4.45312 13.5455V7.18183C4.45312 6.63637 4.81676 6.27274 5.36222 6.27274C5.90767 6.27274 6.27131 6.63637 6.27131 7.18183V13.5455C6.27131 14 5.81676 14.4546 5.36222 14.4546Z" fill="#0F172A"/>
  <path d="M18.1804 12.9091C18.0895 12.9091 17.9986 12.9091 17.8168 12.8182L4.99858 7.81819C4.63494 7.72728 4.45312 7.36365 4.45312 7.00001C4.45312 6.63637 4.72585 6.27274 4.99858 6.18183L17.8168 1.18183C17.9986 1.09092 18.2713 1.09092 18.4531 1.18183L31.2713 6.18183C31.6349 6.27274 31.8168 6.63637 31.8168 7.00001C31.8168 7.36365 31.544 7.72728 31.2713 7.81819L18.4531 12.8182C18.3622 12.9091 18.2713 12.9091 18.1804 12.9091ZM7.81676 7.00001L18.1804 11L28.544 7.00001L18.1804 3.00001L7.81676 7.00001Z" fill="#0F172A"/>
  <path d="M18.1804 8.09092H5.36222C4.81676 8.09092 4.45312 7.72728 4.45312 7.18183C4.45312 6.63637 4.81676 6.27274 5.36222 6.27274H18.1804C18.7259 6.27274 19.0895 6.63637 19.0895 7.18183C19.0895 7.72728 18.6349 8.09092 18.1804 8.09092Z" fill="#0F172A"/>
  <path d="M5.36346 19C3.63619 19 2.18164 17.5455 2.18164 15.8182C2.18164 14.0909 3.63619 12.6364 5.36346 12.6364C7.09073 12.6364 8.54528 14.0909 8.54528 15.8182C8.54528 17.5455 7.09073 19 5.36346 19ZM5.36346 14.4546C4.63619 14.4546 3.99982 15.0909 3.99982 15.8182C3.99982 16.5455 4.63619 17.1818 5.36346 17.1818C6.09073 17.1818 6.7271 16.5455 6.7271 15.8182C6.7271 15.0909 6.09073 14.4546 5.36346 14.4546Z" fill="#0F172A"/>
  <path d="M18.3632 35.0909C18.0904 35.0909 17.8177 34.9091 17.6359 34.7273L13.9086 29.4546C9.99952 30 7.8177 31.5455 7.18134 34.2727C7.09043 34.7273 6.54497 35.0909 6.09043 34.9091C5.63588 34.8182 5.27225 34.2727 5.45406 33.8182C6.36316 30.2727 9.27225 28.1818 14.2722 27.5455C14.6359 27.5455 14.9086 27.6364 15.0904 27.9091L18.4541 32.5455L21.8177 27.9091C21.9995 27.6364 22.3632 27.4546 22.6359 27.5455C27.6359 28.1818 30.545 30.1818 31.4541 33.7273C31.545 34.1818 31.2722 34.7273 30.8177 34.8182C30.3632 34.9091 29.8177 34.6364 29.7268 34.1818C28.9995 31.5455 26.9086 30 22.9995 29.4546L19.0904 34.7273C18.9086 35 18.6359 35.0909 18.3632 35.0909Z" fill="#0F172A"/>
  <path d="M30.7255 53.2727C30.18 53.2727 29.8164 52.8182 29.8164 52.3637C29.8164 51.6364 29.8164 50.4546 29.8164 48.5455C29.8164 48 30.18 47.6364 30.7255 47.6364C31.271 47.6364 31.6346 48.0909 31.6346 48.5455V52.3637C31.6346 52.9091 31.18 53.2727 30.7255 53.2727Z" fill="#0F172A"/>
  <path d="M5.99893 53.2727C5.54439 53.2727 5.08984 52.9091 5.08984 52.3637C5.08984 51.7273 5.08984 50.2727 5.08984 48.5455C5.08984 48 5.45348 47.6364 5.99893 47.6364C6.54439 47.6364 6.90803 48 6.90803 48.5455V52.3637C6.90803 52.8182 6.45348 53.2727 5.99893 53.2727Z" fill="#0F172A"/>
  <path d="M18.362 53.2727C18.2711 53.2727 18.1802 53.2727 18.0893 53.2727L4.27113 48.7273C3.90749 48.5455 3.63477 48.1818 3.63477 47.8182V44.3637C3.63477 43.8182 3.9984 43.4546 4.54386 43.4546C5.08931 43.4546 5.45295 43.8182 5.45295 44.3637V47.1818L17.4529 51.0909V39L5.45295 35V38.9091C5.45295 39.4546 5.08931 39.8182 4.54386 39.8182C3.9984 39.8182 3.63477 39.4546 3.63477 38.9091V33.8182C3.63477 33.5455 3.81658 33.2728 3.9984 33.0909C4.27113 32.9091 4.54386 32.9091 4.81658 33L18.6348 37.5455C18.9984 37.6364 19.2711 38 19.2711 38.4546V52.5455C19.2711 52.8182 19.0893 53.0909 18.9075 53.2727C18.7257 53.1818 18.5439 53.2727 18.362 53.2727Z" fill="#0F172A"/>
  <path d="M18.3622 53.2727C18.1804 53.2727 17.9986 53.1818 17.8168 53.0909C17.544 52.9091 17.4531 52.6364 17.4531 52.3637V38.2727C17.4531 37.9091 17.7259 37.5455 18.0895 37.3637L31.9077 32.8182C32.1804 32.7273 32.4531 32.8182 32.7259 32.9091C32.9986 33.0909 33.0895 33.3637 33.0895 33.6364V38.7273C33.0895 39.2727 32.7259 39.6364 32.1804 39.6364C31.6349 39.6364 31.2713 39.2727 31.2713 38.7273V34.8182L19.2713 38.7273V50.8182L31.2713 46.9091V44.0909C31.2713 43.5455 31.6349 43.1818 32.1804 43.1818C32.7259 43.1818 33.0895 43.5455 33.0895 44.0909V47.5455C33.0895 47.9091 32.8168 48.2727 32.4531 48.4546L18.6349 53C18.544 53.2727 18.4531 53.2727 18.3622 53.2727Z" fill="#0F172A"/>
  <path d="M32.0895 45.2727C30.0895 45.2727 28.4531 43.6364 28.4531 41.6364C28.4531 39.6364 30.0895 38 32.0895 38C34.0895 38 35.7259 39.6364 35.7259 41.6364C35.7259 43.6364 34.0895 45.2727 32.0895 45.2727ZM32.0895 39.8182C31.0895 39.8182 30.2713 40.6364 30.2713 41.6364C30.2713 42.6364 31.0895 43.4545 32.0895 43.4545C33.0895 43.4545 33.9077 42.6364 33.9077 41.6364C33.9077 40.6364 33.0895 39.8182 32.0895 39.8182Z" fill="#0F172A"/>
  <path d="M4.54457 45.2727C2.54457 45.2727 0.908203 43.6364 0.908203 41.6364C0.908203 39.6364 2.54457 38 4.54457 38C6.54457 38 8.18093 39.6364 8.18093 41.6364C8.18093 43.6364 6.54457 45.2727 4.54457 45.2727ZM4.54457 39.8182C3.54457 39.8182 2.72638 40.6364 2.72638 41.6364C2.72638 42.6364 3.54457 43.4545 4.54457 43.4545C5.54457 43.4545 6.36275 42.6364 6.36275 41.6364C6.36275 40.6364 5.54457 39.8182 4.54457 39.8182Z" fill="#0F172A"/>
  <path d="M54.8164 53.2727C54.271 53.2727 53.9073 52.9091 53.9073 52.3637C53.9073 51.8182 54.271 51.4546 54.8164 51.4546C56.18 51.4546 57.271 50.3637 57.271 49C57.271 47.6364 56.18 46.5455 54.8164 46.5455H39.6346V52.2727C39.6346 52.8182 39.271 53.1818 38.7255 53.1818C38.18 53.1818 37.8164 52.8182 37.8164 52.2727V45.6364C37.8164 45.0909 38.18 44.7273 38.7255 44.7273H54.9073C57.271 44.7273 59.18 46.6364 59.18 49C59.18 51.3637 57.18 53.2727 54.8164 53.2727Z" fill="#0F172A"/>
  <path d="M58.1811 46.6364H41.9993C39.6357 46.6364 37.7266 44.7273 37.7266 42.3636C37.7266 40 39.6357 38.0909 41.9993 38.0909H58.1811C58.7266 38.0909 59.0902 38.4545 59.0902 39V45.6364C59.0902 46.1818 58.7266 46.6364 58.1811 46.6364ZM41.9993 39.9091C40.6357 39.9091 39.5447 41 39.5447 42.3636C39.5447 43.7273 40.6357 44.8182 41.9993 44.8182H57.272V40H41.9993V39.9091Z" fill="#0F172A"/>
  <path d="M54.8164 39.9091H38.7255C38.18 39.9091 37.8164 39.5455 37.8164 39V32.3637C37.8164 31.8182 38.18 31.4546 38.7255 31.4546H54.9073C57.271 31.4546 59.18 33.3637 59.18 35.7273C59.0891 38 57.18 39.9091 54.8164 39.9091ZM39.6346 38.0909H54.9073C56.271 38.0909 57.3619 37 57.3619 35.6364C57.3619 34.2727 56.271 33.1818 54.9073 33.1818H39.6346V38.0909Z" fill="#0F172A"/>
  <path d="M52.0891 36.5455H38.7255C38.18 36.5455 37.8164 36.1818 37.8164 35.6364C37.8164 35.0909 38.18 34.7273 38.7255 34.7273H52.0891C52.6346 34.7273 52.9982 35.0909 52.9982 35.6364C52.9982 36.1818 52.5437 36.5455 52.0891 36.5455Z" fill="#0F172A"/>
  <path d="M58.1809 43.2727H44.8173C44.2718 43.2727 43.9082 42.9091 43.9082 42.3637C43.9082 41.8182 44.2718 41.4546 44.8173 41.4546H58.1809C58.7264 41.4546 59.09 41.8182 59.09 42.3637C59.09 42.9091 58.7264 43.2727 58.1809 43.2727Z" fill="#0F172A"/>
  <path d="M52.2727 49.9091H38.9091C38.3636 49.9091 38 49.5455 38 49C38 48.4546 38.3636 48.0909 38.9091 48.0909H52.2727C52.8182 48.0909 53.1818 48.4546 53.1818 49C53.1818 49.5455 52.8182 49.9091 52.2727 49.9091Z" fill="#0F172A"/>
  <path d="M45.9089 23.3636C39.9998 23.3636 35.1816 18.5455 35.1816 12.6364C35.1816 6.72727 39.9998 1.90909 45.9089 1.90909C51.818 1.90909 56.6362 6.72727 56.6362 12.6364C56.6362 18.5455 51.818 23.3636 45.9089 23.3636ZM45.9089 3.72727C40.9998 3.72727 36.9998 7.72727 36.9998 12.6364C36.9998 17.5455 40.9998 21.5455 45.9089 21.5455C50.818 21.5455 54.818 17.5455 54.818 12.6364C54.818 7.72727 50.818 3.72727 45.9089 3.72727Z" fill="#0F172A"/>
  <path d="M45.9089 13.5454H42.0907C41.5453 13.5454 41.1816 13.1818 41.1816 12.6364C41.1816 12.0909 41.5453 11.7273 42.0907 11.7273H45.5453L49.3635 7.90908C49.7271 7.54544 50.2726 7.54544 50.6362 7.90908C50.9998 8.27272 50.9998 8.81817 50.6362 9.18181L46.5453 13.2727C46.3635 13.4545 46.1816 13.5454 45.9089 13.5454Z" fill="#0F172A"/>
  <path d="M21.8173 45.2727C21.7264 45.2727 21.5446 45.2727 21.4537 45.1818C21.09 45 20.9082 44.7273 20.9082 44.3637V37.0909C20.9082 36.7273 21.1809 36.3637 21.5446 36.1818L25.8173 34.7273C26.09 34.6364 26.3627 34.7273 26.6355 34.8182C26.9082 35 26.9991 35.2727 26.9991 35.5455V43.3637C26.9991 43.6364 26.8173 44 26.5446 44.0909C26.2718 44.2727 25.9991 44.2727 25.6355 44.1818L24.09 43.6364L22.3627 45.0909C22.2718 45.1818 21.9991 45.2727 21.8173 45.2727ZM22.7264 37.8182V42.4546L23.3627 41.9091C23.6355 41.6364 23.9991 41.6364 24.3627 41.8182L25.1809 42.1818V37.0909L22.7264 37.8182Z" fill="#0F172A"/>
</svg>
