<svg width="60" height="60" viewBox="0 0 60 60" fill="none" xmlns="http://www.w3.org/2000/svg">
<g clip-path="url(#clip0_3460_14189)">
<path d="M8.07148 20.6438C10.2559 20.6438 12.0277 18.8719 12.0277 16.6875C12.0277 14.5031 10.2559 12.7313 8.07148 12.7313C5.88711 12.7313 4.11523 14.5031 4.11523 16.6875C4.11523 18.8719 5.88711 20.6438 8.07148 20.6438ZM8.07148 14.55C9.25273 14.55 10.209 15.5063 10.209 16.6875C10.209 17.8688 9.25273 18.825 8.07148 18.825C6.89023 18.825 5.93398 17.8688 5.93398 16.6875C5.93398 15.5063 6.89023 14.55 8.07148 14.55Z" fill="#0F172A"/>
<path d="M52.6977 51.525C52.0508 51.3281 51.3102 50.9719 50.6445 50.6156C50.8414 50.2781 51.0102 49.9031 51.1414 49.4906C51.657 49.0594 51.9383 48.2813 52.032 47.8406C52.182 47.0625 51.9664 46.4906 51.6102 46.1438L51.6195 45.9656C51.657 45.0469 51.3477 44.1844 50.7477 43.5563C50.1102 42.8813 49.2008 42.5156 48.207 42.5156H47.682C46.6883 42.5156 45.7789 42.8813 45.1414 43.5563C44.532 44.1938 44.2227 45.0469 44.2695 45.9563L44.2789 46.1438C43.9227 46.4906 43.707 47.0625 43.857 47.8406C43.9414 48.2906 44.2227 49.0688 44.7383 49.5C44.8695 49.9125 45.0383 50.2875 45.2352 50.625C44.8227 50.85 44.3258 51.0938 43.8289 51.3C43.3977 50.8688 42.8539 50.5125 42.1695 50.3063C41.1852 50.0063 40.0883 49.4625 39.282 49.0125C39.6008 48.5344 39.8727 47.9813 40.0602 47.3625C40.6977 46.875 41.0539 45.9094 41.157 45.3563C41.3445 44.3906 41.0633 43.725 40.6133 43.3406L40.6227 43.0125C40.6695 41.9156 40.3039 40.8844 39.582 40.1344C38.8133 39.3281 37.7352 38.8875 36.5352 38.8875H35.8695C34.6695 38.8875 33.5914 39.3281 32.8227 40.1344C32.1008 40.8938 31.7258 41.9156 31.782 43.0031L31.7914 43.3406C31.332 43.725 31.0602 44.3906 31.2477 45.3469C31.3508 45.9 31.6977 46.8656 32.3445 47.3531C32.532 47.9813 32.7945 48.525 33.1133 49.0031C32.307 49.4531 31.2195 49.9969 30.2352 50.2969C29.5414 50.5031 29.007 50.8594 28.5758 51.2906C28.0695 51.0938 27.582 50.8406 27.1695 50.6156C27.3664 50.2781 27.5352 49.9031 27.6664 49.4906C28.182 49.0594 28.4633 48.2906 28.5477 47.8406C28.6977 47.0625 28.482 46.4813 28.1258 46.1344L28.1352 45.9656C28.1727 45.0469 27.8633 44.1844 27.2633 43.5563C26.6258 42.8906 25.7164 42.5156 24.7227 42.5156H24.1977C23.2039 42.5156 22.2945 42.8813 21.657 43.5563C21.0477 44.1938 20.7383 45.0469 20.7852 45.9563L20.7945 46.1438C20.4289 46.4906 20.2227 47.0625 20.3727 47.8406C20.457 48.2906 20.7383 49.0688 21.2633 49.5C21.3945 49.9125 21.5633 50.2875 21.7602 50.625C21.1602 50.9531 20.4008 51.3188 19.707 51.525C16.9789 52.3406 16.9414 55.875 16.9414 56.025C16.9414 56.4375 17.2133 56.7938 17.607 56.8969C19.8852 57.5344 22.182 57.8531 24.4695 57.8531C26.3258 57.8531 28.1727 57.6375 30.0102 57.225C32.0727 57.6375 34.1539 57.8531 36.2258 57.8531C38.2977 57.8531 40.3789 57.6375 42.4414 57.225C44.2789 57.6469 46.1258 57.8625 47.982 57.8625C50.2695 57.8625 52.5664 57.5438 54.8445 56.9063C55.2383 56.7938 55.5102 56.4375 55.5102 56.0344C55.4539 55.875 55.4258 52.3406 52.6977 51.525ZM46.0977 46.6219L46.0695 45.8906C46.0508 45.4688 46.182 45.0938 46.4445 44.8219C46.7352 44.5125 47.1758 44.3438 47.6727 44.3438H48.1977C48.6945 44.3438 49.1258 44.5125 49.4258 44.8219C49.6883 45.0938 49.8195 45.4688 49.8008 45.9L49.7727 46.6219C49.7633 46.9688 49.9602 47.2875 50.2602 47.4469C50.2602 47.4656 50.2602 47.475 50.2508 47.4938C50.2039 47.7375 50.0914 47.9625 50.0164 48.0656C49.7539 48.1781 49.557 48.4031 49.482 48.6844C49.3133 49.3688 49.0039 49.9219 48.6383 50.2406C48.6383 50.2406 48.6383 50.2406 48.6289 50.25C48.4133 50.4375 48.1695 50.55 47.9258 50.55C47.2789 50.55 46.6414 49.7813 46.3789 48.6938C46.3133 48.4125 46.1164 48.1875 45.8539 48.075C45.7789 47.9719 45.6664 47.7563 45.6195 47.5125C45.6195 47.4938 45.6102 47.4844 45.6102 47.475C45.9102 47.2969 46.107 46.9781 46.0977 46.6219ZM32.982 44.7469C33.3664 44.625 33.6195 44.2594 33.6102 43.8469L33.5727 42.9188C33.5445 42.3094 33.732 41.775 34.1164 41.3813C34.5383 40.9406 35.1477 40.6969 35.8508 40.6969H36.5164C37.2102 40.6969 37.8289 40.9406 38.2508 41.3813C38.6352 41.7844 38.8227 42.3094 38.7945 42.9281L38.757 43.8469C38.7383 44.2406 39.0102 44.6063 39.3852 44.7375C39.3852 44.7938 39.3852 44.8781 39.357 45C39.2727 45.4031 39.0758 45.7594 38.9727 45.8813C38.682 45.9844 38.4664 46.2188 38.3914 46.5281C38.0258 48.0281 37.1164 49.0688 36.1883 49.0688C35.2602 49.0688 34.3508 48.0188 33.9852 46.5281C33.9102 46.2281 33.6945 45.9844 33.4039 45.8906C33.2914 45.7688 33.0945 45.4219 33.0195 45.0094C32.982 44.8875 32.982 44.8031 32.982 44.7469ZM22.5852 46.6219L22.557 45.8906C22.5383 45.4688 22.6695 45.0938 22.932 44.8219C23.2227 44.5125 23.6633 44.3438 24.1602 44.3438H24.6852C25.182 44.3438 25.6133 44.5125 25.9133 44.8219C26.1758 45.0938 26.307 45.4688 26.2883 45.9L26.2602 46.6219C26.2508 46.9688 26.4477 47.2875 26.7477 47.4469C26.7477 47.4656 26.7477 47.475 26.7383 47.4938C26.6914 47.7375 26.5789 47.9625 26.5039 48.0656C26.2414 48.1781 26.0445 48.4031 25.9789 48.6844C25.8102 49.3688 25.5008 49.9219 25.1352 50.2406C24.9102 50.4281 24.6758 50.5406 24.432 50.5406C23.7852 50.5406 23.1477 49.7813 22.8852 48.6844C22.8195 48.4031 22.6133 48.1781 22.3602 48.0656C22.2852 47.9625 22.1727 47.7469 22.1258 47.5031C22.1258 47.4844 22.1164 47.475 22.1164 47.4656C22.407 47.2969 22.6039 46.9781 22.5852 46.6219ZM18.7883 55.3406C18.9102 54.6188 19.257 53.5406 20.1852 53.2594C21.1977 52.95 22.2758 52.3969 23.0258 51.9656C23.457 52.2188 23.9258 52.3594 24.4227 52.3594C24.9195 52.3594 25.3883 52.2188 25.8195 51.9656C26.2602 52.2188 26.8602 52.5469 27.507 52.8281C26.8883 54.2344 26.8789 55.6688 26.8789 55.7719C26.8789 55.8188 26.8977 55.8563 26.8977 55.8938C24.1977 56.1938 21.4789 56.0063 18.7883 55.3406ZM28.7539 55.0875C28.8852 54.1313 29.3258 52.4625 30.732 52.0313C32.0352 51.6375 33.4414 50.8969 34.3977 50.3438C34.9414 50.6906 35.5414 50.8781 36.1695 50.8781C36.7977 50.8781 37.3883 50.6813 37.932 50.3438C38.8883 50.8969 40.3039 51.6375 41.6164 52.0406C43.0227 52.4625 43.4633 54.1406 43.5945 55.0969C38.6727 56.3438 33.6758 56.3438 28.7539 55.0875ZM45.4602 55.9031C45.4695 55.8656 45.4789 55.8188 45.4789 55.7813C45.4789 55.6781 45.4602 54.2438 44.8414 52.8375C45.4883 52.5563 46.0789 52.2375 46.5289 51.9844C46.9602 52.2281 47.4289 52.3781 47.9258 52.3781C48.4227 52.3781 48.8914 52.2375 49.3227 51.9844C49.9977 52.3688 51.1039 52.9594 52.1633 53.2781C53.1008 53.5594 53.4383 54.6281 53.5602 55.35C50.8695 56.0063 48.1602 56.1938 45.4602 55.9031Z" fill="#0F172A"/>
<path d="M52.3227 6.1875H19.9133C19.407 6.1875 19.0039 6.59063 19.0039 7.09688C19.0039 7.60313 19.407 8.00625 19.9133 8.00625H52.3227C52.8289 8.00625 53.232 7.60313 53.232 7.09688C53.232 6.59063 52.8289 6.1875 52.3227 6.1875Z" fill="#0F172A"/>
<path d="M52.3215 10.1906H41.7277C41.2215 10.1906 40.8184 10.5937 40.8184 11.1C40.8184 11.6062 41.2215 12.0094 41.7277 12.0094H52.3215C52.8277 12.0094 53.2309 11.6062 53.2309 11.1C53.2309 10.5937 52.8277 10.1906 52.3215 10.1906Z" fill="#0F172A"/>
<path d="M52.3219 17.2875H36.4875C35.9812 17.2875 35.5781 17.6907 35.5781 18.1969C35.5781 18.7032 35.9812 19.1063 36.4875 19.1063H52.3219C52.8281 19.1063 53.2312 18.7032 53.2312 18.1969C53.2312 17.6907 52.8281 17.2875 52.3219 17.2875Z" fill="#0F172A"/>
<path d="M52.3219 21.2906H27.7688C27.2625 21.2906 26.8594 21.6938 26.8594 22.2C26.8594 22.7063 27.2625 23.1094 27.7688 23.1094H52.3219C52.8281 23.1094 53.2312 22.7063 53.2312 22.2C53.2312 21.6938 52.8281 21.2906 52.3219 21.2906Z" fill="#0F172A"/>
<path d="M59.0906 25.3313H57.6469V3.95626H59.0906C59.5969 3.95626 60 3.55314 60 3.04689C60 2.54064 59.5969 2.13751 59.0906 2.13751H13.1438C12.6375 2.13751 12.2344 2.54064 12.2344 3.04689C12.2344 3.55314 12.6375 3.95626 13.1438 3.95626H14.5875V21.9094L6.20625 21.9844C2.78437 21.9938 0 24.7781 0 28.2V36.8438C0 38.2688 1.03125 39.4594 2.38125 39.7219L1.97812 55.1625C1.95937 55.875 2.22187 56.55 2.72813 57.0656C3.225 57.5813 3.9 57.8625 4.6125 57.8625C5.94375 57.8625 7.06875 56.8688 7.21875 55.5375L8.07187 48.2625L8.925 55.5281C9.075 56.85 10.2 57.8531 11.5406 57.8531C12.2531 57.8531 12.9281 57.5719 13.425 57.0563C13.9219 56.5406 14.1844 55.8656 14.175 55.1625L13.7719 29.8031C13.7625 28.9406 14.4187 28.2281 15.2812 28.1719L16.7156 28.0875C17.3813 28.05 18.0094 27.7594 18.4781 27.2625L18.5906 27.1406H56.7375H59.0906C59.5969 27.1406 60 26.7375 60 26.2313C60 25.7438 59.5969 25.3313 59.0906 25.3313ZM16.6125 26.2781L15.1781 26.3625C13.3406 26.4656 11.925 27.9938 11.9531 29.8313L12.3563 55.2C12.3656 55.4156 12.2812 55.6313 12.1219 55.7906C11.9719 55.95 11.7656 56.0344 11.5312 56.0344C11.1188 56.0344 10.7719 55.725 10.725 55.3219L8.98125 40.3594C8.925 39.9 8.54062 39.5531 8.08125 39.5531C7.62187 39.5531 7.22813 39.9 7.18125 40.3594L5.40938 55.3219C5.3625 55.7344 5.01562 56.0344 4.60312 56.0344C4.3875 56.0344 4.18125 55.95 4.02187 55.7906C3.87188 55.6313 3.7875 55.425 3.7875 55.2L4.40625 31.3406C4.41562 30.8438 4.02187 30.4219 3.525 30.4125C3.51562 30.4125 3.50625 30.4125 3.49688 30.4125C3.00938 30.4125 2.60625 30.8063 2.5875 31.2938L2.41875 37.8188C2.05312 37.6406 1.80937 37.2563 1.80937 36.825V28.1813C1.80937 25.7625 3.77813 23.7938 6.20625 23.7938L15.2906 23.7094C15.3469 23.7094 15.4031 23.6906 15.4594 23.6906C15.4688 23.6906 15.4781 23.7 15.4875 23.7C15.5156 23.7 15.5438 23.6813 15.5719 23.6813C16.2563 23.6063 16.8938 23.325 17.3531 22.8563L22.4156 18.2531C22.6969 18 23.1281 18.0188 23.3906 18.2906C23.6438 18.5531 23.6438 18.975 23.3906 19.2375L17.5406 25.5656C17.5312 25.575 17.5219 25.5844 17.5125 25.6031L17.1375 26.0063C17.0063 26.1844 16.8187 26.2688 16.6125 26.2781ZM24.75 20.4938C25.4344 19.7531 25.5844 18.7031 25.2188 17.8219L31.2938 11.6156C31.6406 11.2594 31.6406 10.6781 31.275 10.3313C30.9188 9.97501 30.3375 9.98439 29.9906 10.3406L23.9531 16.5094C23.0625 16.1063 21.975 16.2375 21.2156 16.9313L16.4156 21.3V3.95626H55.8375V25.3313H20.2688L24.75 20.4938Z" fill="#0F172A"/>
<path d="M18.375 39.6282C18.375 40.0407 18.6469 40.3969 19.0406 40.5C20.85 41.0063 22.6781 41.2594 24.5062 41.2594C26.3344 41.2594 28.1625 41.0063 29.9719 40.5C30.3656 40.3875 30.6375 40.0313 30.6375 39.6282C30.6375 38.5032 30.15 36.4407 28.3219 35.8969C27.8531 35.7563 27.3469 35.5125 26.9062 35.2875C27.0188 35.0719 27.1219 34.8469 27.2063 34.5938C27.6281 34.2188 27.8531 33.6094 27.9281 33.2157C28.0125 32.7844 27.975 32.4 27.8156 32.0813C27.7594 31.9594 27.6844 31.8563 27.6 31.7625V31.7157C27.6375 30.9375 27.375 30.2063 26.8594 29.6719C26.3156 29.1094 25.5563 28.7906 24.7125 28.7906H24.3C23.4562 28.7906 22.6969 29.1 22.1531 29.6719C21.6375 30.2063 21.375 30.9375 21.4125 31.7063V31.7625C21.1219 32.0813 20.9531 32.5688 21.0844 33.2157C21.1594 33.6094 21.3844 34.2281 21.8062 34.6032C21.8906 34.8563 21.9937 35.0813 22.1062 35.2969C21.6656 35.5219 21.1594 35.7656 20.6906 35.9063C18.8625 36.4406 18.375 38.5032 18.375 39.6282ZM23.25 32.2031L23.2313 31.6219C23.2219 31.3313 23.2969 31.0969 23.475 30.9188C23.6719 30.7125 23.9625 30.6 24.3 30.6H24.7125C25.05 30.6 25.35 30.7125 25.5375 30.9188C25.7062 31.0969 25.7906 31.3407 25.7812 31.6313L25.7625 32.2031C25.7531 32.5031 25.8938 32.775 26.1188 32.9532C26.0906 33.0563 26.0437 33.1406 26.0156 33.2063C25.7812 33.3281 25.6031 33.5438 25.5469 33.7969C25.3594 34.5656 24.9281 35.1188 24.5062 35.1188C24.0937 35.1188 23.6531 34.5656 23.4656 33.7969C23.4 33.5344 23.2313 33.3188 22.9969 33.2063C22.9688 33.1594 22.9312 33.075 22.8937 32.9625C23.1187 32.775 23.2594 32.4938 23.25 32.2031ZM21.2156 37.6313C21.9844 37.3969 22.8 36.9844 23.4 36.6469C23.7375 36.825 24.1125 36.9282 24.4969 36.9282C24.8906 36.9282 25.2562 36.825 25.5937 36.6469C26.1937 36.9844 27.0187 37.3969 27.7875 37.6313C28.3594 37.8 28.6125 38.4375 28.725 38.9438C25.9219 39.6094 23.0812 39.6094 20.2781 38.9438C20.3906 38.4375 20.6437 37.8 21.2156 37.6313Z" fill="#0F172A"/>
<path d="M41.793 39.6282C41.793 40.0407 42.0648 40.3969 42.4586 40.5C44.268 41.0063 46.0961 41.2594 47.9242 41.2594C49.7523 41.2594 51.5805 41.0063 53.3898 40.5C53.7836 40.3875 54.0555 40.0313 54.0555 39.6282C54.0555 38.5032 53.568 36.4407 51.7398 35.8969C51.2711 35.7563 50.7555 35.5125 50.3242 35.2875C50.4367 35.0719 50.5398 34.8469 50.6242 34.5938C51.0461 34.2188 51.2711 33.6094 51.3461 33.2157C51.4305 32.7844 51.393 32.4 51.2336 32.0813C51.1773 31.9594 51.1023 31.8563 51.018 31.7625V31.7157C51.0555 30.9375 50.793 30.2063 50.2773 29.6719C49.7336 29.1094 48.9742 28.7906 48.1305 28.7906H47.718C46.8742 28.7906 46.1148 29.1 45.5711 29.6719C45.0555 30.2063 44.793 30.9375 44.8305 31.7063V31.7625C44.5398 32.0813 44.3711 32.5688 44.5023 33.2157C44.5773 33.6094 44.8023 34.2281 45.2242 34.6032C45.3086 34.8563 45.4117 35.0813 45.5242 35.2969C45.0836 35.5219 44.5773 35.7656 44.1086 35.9063C42.2898 36.4406 41.793 38.5032 41.793 39.6282ZM46.668 32.2031L46.6492 31.6219C46.6398 31.3313 46.7148 31.0969 46.893 30.9188C47.0898 30.7125 47.3805 30.6 47.718 30.6H48.1305C48.468 30.6 48.768 30.7125 48.9555 30.9188C49.1242 31.0969 49.2086 31.3407 49.1992 31.6313L49.1805 32.2031C49.1711 32.5031 49.3117 32.775 49.5367 32.9532C49.5086 33.0563 49.4617 33.1406 49.4336 33.2063C49.1992 33.3281 49.0211 33.5438 48.9648 33.7969C48.7773 34.5656 48.3461 35.1188 47.9242 35.1188C47.5117 35.1188 47.0711 34.5656 46.8836 33.7969C46.818 33.5344 46.6492 33.3188 46.4148 33.2063C46.3867 33.1594 46.3492 33.075 46.3117 32.9625C46.5461 32.775 46.6867 32.4938 46.668 32.2031ZM44.643 37.6313C45.4117 37.3969 46.2273 36.9844 46.8273 36.6469C47.1648 36.825 47.5398 36.9282 47.9242 36.9282C48.318 36.9282 48.6836 36.825 49.0211 36.6469C49.6211 36.9844 50.4461 37.3969 51.2148 37.6313C51.7867 37.8 52.0398 38.4375 52.1523 38.9438C49.3492 39.6094 46.5086 39.6094 43.7055 38.9438C43.818 38.4375 44.0711 37.8 44.643 37.6313Z" fill="#0F172A"/>
</g>
<defs>
<clipPath id="clip0_3460_14189">
<rect width="60" height="60" fill="white"/>
</clipPath>
</defs>
</svg>
