<svg width="60" height="60" viewBox="0 0 60 60" fill="none" xmlns="http://www.w3.org/2000/svg">
<path d="M6.22649 53.0052H25.1965C25.3435 55.527 27.4419 57.5335 30.0001 57.5335C32.5583 57.5335 34.6566 55.527 34.8037 53.0052H53.7737C55.4906 53.0052 56.8869 51.6089 56.8869 49.892V16.9258C56.8869 15.2089 55.4906 13.8126 53.7737 13.8126H50.928V10.9791C50.928 9.26223 49.5317 7.86593 47.8148 7.86593H40.8543C40.7691 7.86593 40.6917 7.89108 40.6141 7.91444C38.2344 4.62165 34.3683 2.46646 29.999 2.46646C25.6343 2.46646 21.7723 4.61722 19.3923 7.90407C19.3298 7.88935 19.2704 7.86593 19.2033 7.86593H12.1843C10.4674 7.86593 9.07105 9.26223 9.07105 10.9791V13.8126H6.22649C4.50958 13.8126 3.11328 15.2089 3.11328 16.9258V49.892C3.11328 51.6089 4.50958 53.0052 6.22649 53.0052ZM47.8148 9.56404C48.5953 9.56404 49.2299 10.1986 49.2299 10.9791V41.4888H34.2719C32.9574 41.4888 31.7568 41.9863 30.8491 42.8044V28.5828C34.1762 28.3675 37.1677 26.9149 39.3609 24.668H44.3799C44.8486 24.668 45.2289 24.2877 45.2289 23.8189C45.2289 23.3502 44.8486 22.9699 44.3799 22.9699H40.7621C41.7952 21.4794 42.5221 19.7658 42.8641 17.9164H44.3799C44.8486 17.9164 45.2289 17.5361 45.2289 17.0674C45.2289 16.5986 44.8486 16.2183 44.3799 16.2183H43.0572C43.0691 15.9902 43.0919 15.765 43.0919 15.534C43.0919 13.3822 42.5589 11.3557 41.632 9.56404H47.8148ZM29.999 4.16457C36.2818 4.16457 41.3938 9.26444 41.3938 15.534C41.3938 21.8168 36.2818 26.9277 29.999 26.9277C23.7162 26.9277 18.6052 21.8168 18.6052 15.534C18.6052 9.26444 23.7162 4.16457 29.999 4.16457ZM10.7692 10.9791C10.7692 10.1986 11.4037 9.56404 12.1843 9.56404H18.3668C17.4401 11.3557 16.9071 13.3822 16.9071 15.534C16.9071 15.765 16.9299 15.9902 16.9418 16.2183H15.5495C15.0808 16.2183 14.7005 16.5986 14.7005 17.0674C14.7005 17.5361 15.0808 17.9164 15.5495 17.9164H17.1349C17.4767 19.7658 18.2036 21.4794 19.2366 22.9699H15.5495C15.0808 22.9699 14.7005 23.3502 14.7005 23.8189C14.7005 24.2877 15.0808 24.668 15.5495 24.668H20.6376C22.8309 26.9155 25.8232 28.3681 29.151 28.5828V42.8044C28.2434 41.9874 27.0427 41.4888 25.7272 41.4888H10.7692V10.9791ZM4.81139 16.9258C4.81139 16.1453 5.44598 15.5108 6.22649 15.5108H9.07105V42.3378C9.07105 42.8066 9.45136 43.1869 9.92011 43.1869H25.7272C27.6154 43.1869 29.151 44.7225 29.151 46.6108C29.151 47.0795 29.5313 47.4598 30.0001 47.4598C30.4688 47.4598 30.8491 47.0795 30.8491 46.6108C30.8491 44.7225 32.3847 43.1869 34.2719 43.1869H50.0789C50.5477 43.1869 50.928 42.8066 50.928 42.3378V15.5108H53.7737C54.5542 15.5108 55.1888 16.1453 55.1888 16.9258V49.892C55.1888 50.6725 54.5542 51.3071 53.7737 51.3071H33.9623C33.4936 51.3071 33.1133 51.6874 33.1133 52.1562V52.7222C33.1133 54.4391 31.717 55.8354 30.0001 55.8354C28.2832 55.8354 26.8869 54.4391 26.8869 52.7222V52.1562C26.8869 51.6874 26.5066 51.3071 26.0378 51.3071H6.22649C5.44598 51.3071 4.81139 50.6725 4.81139 49.892V16.9258Z" fill="#0F172A"/>
<path d="M44.3794 29.7214H35.6987C35.2299 29.7214 34.8496 30.1017 34.8496 30.5704C34.8496 31.0392 35.2299 31.4195 35.6987 31.4195H44.3794C44.8481 31.4195 45.2284 31.0392 45.2284 30.5704C45.2284 30.1017 44.8481 29.7214 44.3794 29.7214Z" fill="#0F172A"/>
<path d="M15.5502 31.4195H24.2309C24.6997 31.4195 25.08 31.0392 25.08 30.5704C25.08 30.1017 24.6997 29.7214 24.2309 29.7214H15.5502C15.0815 29.7214 14.7012 30.1017 14.7012 30.5704C14.7012 31.0392 15.0815 31.4195 15.5502 31.4195Z" fill="#0F172A"/>
<path d="M44.3794 36.4741H35.6987C35.2299 36.4741 34.8496 36.8544 34.8496 37.3231C34.8496 37.7919 35.2299 38.1722 35.6987 38.1722H44.3794C44.8481 38.1722 45.2284 37.7919 45.2284 37.3231C45.2284 36.8544 44.8481 36.4741 44.3794 36.4741Z" fill="#0F172A"/>
<path d="M15.5502 38.1722H24.2309C24.6997 38.1722 25.08 37.7919 25.08 37.3231C25.08 36.8544 24.6997 36.4741 24.2309 36.4741H15.5502C15.0815 36.4741 14.7012 36.8544 14.7012 37.3231C14.7012 37.7919 15.0815 38.1722 15.5502 38.1722Z" fill="#0F172A"/>
<path d="M26.4735 20.6924C26.7975 20.8693 27.1546 20.9567 27.5105 20.9567C27.924 20.9567 28.3364 20.8384 28.6957 20.6051L33.675 17.3648C34.2941 16.9612 34.6645 16.2791 34.6634 15.5395C34.6634 14.801 34.293 14.12 33.6728 13.7187L28.6935 10.4861C28.0246 10.0516 27.1733 10.0173 26.4724 10.3998C25.7715 10.7801 25.3359 11.512 25.3359 12.3102V18.7821C25.3359 19.5803 25.7715 20.3121 26.4735 20.6924ZM27.0341 12.3102C27.0341 12.0548 27.2076 11.9321 27.2828 11.8912C27.3259 11.868 27.4099 11.8315 27.5139 11.8315C27.5912 11.8315 27.6786 11.8514 27.7692 11.91L32.7486 15.1426C32.9443 15.2698 32.9653 15.4643 32.9653 15.5417C32.9653 15.6191 32.9443 15.8137 32.7486 15.9408L27.7692 19.1812C27.557 19.3183 27.358 19.2398 27.2828 19.2C27.2087 19.1602 27.0341 19.0374 27.0341 18.7821V12.3102Z" fill="#0F172A"/>
</svg>
