<svg width="24" height="24" viewBox="0 0 24 24" fill="none" xmlns="http://www.w3.org/2000/svg">
<path d="M5.84189 15.979C5.26389 15.974 4.68888 16.201 4.24588 16.644C3.45888 17.431 2.66688 20.302 2.51688 20.869C2.47188 21.04 2.51988 21.222 2.64288 21.348C2.73788 21.445 2.86688 21.498 2.99988 21.498C3.03988 21.498 3.07887 21.493 3.11887 21.484C3.66287 21.351 6.41689 20.648 7.20789 19.857C8.13389 18.931 8.19888 17.49 7.35388 16.645C6.93788 16.228 6.40089 15.992 5.84189 15.979ZM6.50089 19.149C6.13989 19.51 4.82888 19.969 3.72388 20.287C4.09088 19.083 4.60089 17.704 4.95389 17.351C5.20489 17.1 5.49488 16.971 5.81888 16.978C6.11888 16.985 6.41288 17.117 6.64688 17.351C7.10188 17.807 7.03689 18.614 6.50089 19.149ZM13.4999 7.75C11.9829 7.75 10.7499 8.984 10.7499 10.5C10.7499 12.016 11.9829 13.25 13.4999 13.25C15.0169 13.25 16.2499 12.016 16.2499 10.5C16.2499 8.984 15.0169 7.75 13.4999 7.75ZM13.4999 12.25C12.5349 12.25 11.7499 11.465 11.7499 10.5C11.7499 9.535 12.5349 8.75 13.4999 8.75C14.4649 8.75 15.2499 9.535 15.2499 10.5C15.2499 11.465 14.4649 12.25 13.4999 12.25ZM21.4999 3C21.4999 2.724 21.2759 2.5 20.9999 2.5C16.0809 2.5 12.2049 3.986 9.67987 6.715L7.69888 7.047C5.80788 7.353 4.19687 8.64801 3.49487 10.424L2.53488 12.814C2.46688 12.984 2.49689 13.179 2.61389 13.32C2.70989 13.436 2.85187 13.501 2.99887 13.501C3.03187 13.501 3.06386 13.498 3.09686 13.491L6.70288 12.771C6.67688 12.901 6.64187 13.025 6.61887 13.157C6.51087 13.782 6.72187 14.43 7.18387 14.892L9.10587 16.815C9.48887 17.197 9.99888 17.408 10.5169 17.408C10.6249 17.408 10.7329 17.399 10.8409 17.38C10.9729 17.357 11.0969 17.322 11.2279 17.296L10.5079 20.902C10.4719 21.082 10.5379 21.267 10.6789 21.385C10.7699 21.461 10.8839 21.5 10.9979 21.5C11.0609 21.5 11.1239 21.488 11.1849 21.464L13.5719 20.505C15.3509 19.802 16.6459 18.191 16.9509 16.302L17.2829 14.32C20.0139 11.795 21.4999 7.919 21.4999 3ZM19.7479 8.28699C19.1709 6.35399 17.6459 4.82901 15.7129 4.25201C17.4939 3.71501 19.2199 3.53901 20.4939 3.50601C20.4609 4.78001 20.2849 6.50699 19.7479 8.28699ZM3.80887 12.329L4.42487 10.794C4.99887 9.34101 6.31488 8.28399 7.86288 8.03299L8.73889 7.88699C7.95489 9.00099 7.35488 10.276 6.95688 11.701L3.80887 12.329ZM10.6719 16.395C10.3729 16.447 10.0439 16.337 9.81488 16.108L7.89288 14.185C7.65988 13.953 7.55287 13.632 7.60587 13.328C8.39187 8.794 10.9579 6.33899 13.7459 5.01099C13.8299 5.00599 13.9129 5 13.9999 5C16.7569 5 18.9999 7.243 18.9999 10C18.9999 10.08 18.9929 10.17 18.9889 10.255C17.6609 13.042 15.2059 15.608 10.6719 16.395ZM15.9659 16.14C15.7159 17.685 14.6589 19.001 13.2029 19.576L11.6709 20.191L12.2989 17.043C13.7239 16.645 14.9989 16.046 16.1129 15.261L15.9659 16.14Z" fill="#25314C"/>
</svg>
