<svg width="39" height="40" viewBox="0 0 39 40" fill="none" xmlns="http://www.w3.org/2000/svg">
<g filter="url(#filter0_d_5428_26813)">
<path d="M11.6631 29.401L12.199 29.6689C14.4317 31.0086 16.9324 31.6337 19.4331 31.6337C27.2925 31.6337 33.7228 25.2034 33.7228 17.344C33.7228 13.593 32.2046 9.93124 29.5252 7.25192C26.8459 4.5726 23.2735 3.05432 19.4331 3.05432C11.5738 3.05432 5.14342 9.48469 5.23273 17.4333C5.23273 20.1127 6.03653 22.7027 7.37619 24.9354L7.73343 25.4713L6.30446 30.7406L11.6631 29.401Z" fill="#25D366"/>
<path d="M31.0436 5.82278C28.007 2.6969 23.8094 1 19.5225 1C10.4128 1 3.08931 8.41279 3.17862 17.4332C3.17862 20.2911 3.98242 23.0597 5.32208 25.5604L3 34.045L11.6631 31.8122C14.0745 33.1519 16.7538 33.777 19.4332 33.777C28.4535 33.777 35.777 26.3642 35.777 17.3439C35.777 12.9676 34.0801 8.85934 31.0436 5.82278V5.82278ZM19.5225 31.0084C17.1111 31.0084 14.6997 30.3832 12.6456 29.1329L12.1097 28.8649L6.92967 30.2046L8.26933 25.1139L7.91209 24.578C3.98242 18.237 5.85794 9.84176 12.2883 5.91209C18.7187 1.98242 27.0246 3.85794 30.9542 10.2883C34.8839 16.7187 33.0084 25.0246 26.578 28.9543C24.5239 30.2939 22.0232 31.0084 19.5225 31.0084V31.0084ZM27.3818 21.0949L26.3994 20.6484C26.3994 20.6484 24.9704 20.0232 24.0773 19.5766C23.988 19.5766 23.8987 19.4873 23.8094 19.4873C23.5415 19.4873 23.3628 19.5766 23.1842 19.6659C23.1842 19.6659 23.0949 19.7552 21.8446 21.1842C21.7552 21.3628 21.5766 21.4522 21.398 21.4522H21.3087C21.2194 21.4522 21.0408 21.3628 20.9515 21.2735L20.5049 21.0949C19.5225 20.6484 18.6294 20.1125 17.9149 19.398C17.7363 19.2194 17.4683 19.0408 17.2897 18.8621C16.6645 18.237 16.0394 17.5225 15.5928 16.7187L15.5035 16.5401C15.4142 16.4508 15.4142 16.3614 15.3249 16.1828C15.3249 16.0042 15.3249 15.8256 15.4142 15.7363C15.4142 15.7363 15.7714 15.2897 16.0394 15.0218C16.218 14.8432 16.3073 14.5752 16.4859 14.3966C16.6645 14.1287 16.7538 13.7714 16.6645 13.5035C16.5752 13.0569 15.5035 10.6456 15.2356 10.1097C15.0569 9.84176 14.8783 9.75245 14.6104 9.66314H13.628C13.4494 9.66314 13.2707 9.75245 13.0921 9.75245L13.0028 9.84176C12.8242 9.93107 12.6456 10.1097 12.4669 10.199C12.2883 10.3776 12.199 10.5562 12.0204 10.7349C11.3952 11.5387 11.038 12.5211 11.038 13.5035C11.038 14.218 11.2166 14.9325 11.4845 15.5576L11.5738 15.8256C12.3776 17.5225 13.4494 19.0408 14.8783 20.3804L15.2356 20.7377C15.5035 21.0056 15.7714 21.1842 15.9501 21.4522C17.8256 23.0597 19.969 24.2208 22.3804 24.846C22.6484 24.9353 23.0056 24.9353 23.2735 25.0246H24.1666C24.6132 25.0246 25.1491 24.846 25.5063 24.6673C25.7742 24.4887 25.9528 24.4887 26.1315 24.3101L26.3101 24.1315C26.4887 23.9529 26.6673 23.8635 26.846 23.6849C27.0246 23.5063 27.2032 23.3277 27.2925 23.1491C27.4711 22.7918 27.5604 22.3453 27.6498 21.8987V21.2735C27.6498 21.2735 27.5604 21.1842 27.3818 21.0949V21.0949Z" fill="white"/>
</g>
<defs>
<filter id="filter0_d_5428_26813" x="0" y="0" width="38.777" height="39.0449" filterUnits="userSpaceOnUse" color-interpolation-filters="sRGB">
<feFlood flood-opacity="0" result="BackgroundImageFix"/>
<feColorMatrix in="SourceAlpha" type="matrix" values="0 0 0 0 0 0 0 0 0 0 0 0 0 0 0 0 0 0 127 0" result="hardAlpha"/>
<feOffset dy="2"/>
<feGaussianBlur stdDeviation="1.5"/>
<feColorMatrix type="matrix" values="0 0 0 0 0.0554688 0 0 0 0 0.295833 0 0 0 0 0.223724 0 0 0 0.54 0"/>
<feBlend mode="normal" in2="BackgroundImageFix" result="effect1_dropShadow_5428_26813"/>
<feBlend mode="normal" in="SourceGraphic" in2="effect1_dropShadow_5428_26813" result="shape"/>
</filter>
</defs>
</svg>
