<?xml version="1.0" encoding="UTF-8"?>
<svg version="1.1" xmlns="http://www.w3.org/2000/svg" width="4975" height="1889">
<path d="M0 0 C2.8985705 0.00607865 5.7971413 0.00912453 8.69571626 0.01223499 C53.57332062 0.06277827 98.28014006 0.97427531 143.0688591 3.94010115 C149.29873395 4.3509283 155.52989302 4.73589674 161.76213551 5.10898733 C208.20067883 7.89041669 254.61117358 11.05377584 301.01457691 14.36387014 C301.92412223 14.42873672 302.83366755 14.4936033 303.77077484 14.56043553 C313.22277133 15.23456063 322.67472016 15.90935305 332.12666321 16.58422703 C336.02552367 16.86259928 339.92438712 17.14092957 343.82325172 17.41924381 C345.78826652 17.55952039 347.75328003 17.69981513 349.71829224 17.84012794 C412.78181243 22.34290376 475.85678742 26.59508596 538.95598316 30.56699514 C540.92098613 30.69076128 542.88598882 30.81453168 544.85099125 30.93830633 C568.29072831 32.41442104 591.73107206 33.88077189 615.17165184 35.34343576 C646.59949272 37.30460255 678.02674507 39.27507229 709.45305061 41.26069593 C718.55882472 41.83585623 727.66471724 42.408951 736.77101612 42.97574759 C773.54210401 45.26516787 810.3009164 47.68233012 847.04018235 50.44045258 C849.66574092 50.63634529 852.29152848 50.82883926 854.91740704 51.02039099 C858.99315839 51.31827464 863.06806452 51.62579535 867.14249015 51.94128132 C868.64079102 52.0558755 870.13934095 52.16726237 871.63812852 52.27530479 C873.67854913 52.42310015 875.71801502 52.58390854 877.75739002 52.74549246 C878.90085423 52.83218254 880.04431845 52.91887262 881.22243309 53.00818968 C882.06262961 53.15134548 882.90282614 53.29450129 883.76848316 53.44199514 C884.09848316 54.10199514 884.42848316 54.76199514 884.76848316 55.44199514 C884.13938807 55.52164255 883.51029298 55.60128996 882.8621344 55.68335092 C845.53461175 60.4092635 808.20715466 65.13569351 770.87978202 69.86279076 C766.3927317 70.4310254 761.90568084 70.99925574 757.41862965 71.56748343 C756.07875498 71.73716154 756.07875498 71.73716154 754.71181215 71.91026749 C740.26929384 73.73921861 725.8267315 75.56782172 711.3841527 77.39629506 C696.5526211 79.27401889 681.72113723 81.15211939 666.88969713 83.03056586 C657.74603774 84.18862585 648.60234174 85.34639588 639.45859791 86.50378896 C633.17904446 87.29866839 626.89953763 88.09391537 620.62006646 88.88944446 C617.00313884 89.34765235 613.38619173 89.80570483 609.76918888 90.26331854 C608.74601908 90.39279237 608.74601908 90.39279237 607.70217919 90.52488182 C605.7134561 90.77652845 603.72472678 91.02812572 601.73599732 91.27972198 C598.13201711 91.73720888 594.52866635 92.19941045 590.92535686 92.66214514 C587.22276095 93.1363381 583.51968745 93.59118994 579.81041622 94.00983953 C578.75324724 94.1344346 578.75324724 94.1344346 577.6747213 94.26154673 C575.95407034 94.46318313 574.23209224 94.65341821 572.50997734 94.84214354 C567.88482311 95.85414868 565.3863829 97.51514554 562.76848316 101.44199514 C562.57403148 104.00422701 562.49624279 106.4577743 562.51019764 109.0202117 C562.50468408 110.18870262 562.50468408 110.18870262 562.49905914 111.38079941 C562.48905361 113.99940852 562.49323499 116.61780634 562.49724293 119.23642874 C562.49285733 121.11051043 562.48755579 122.98459017 562.4814043 124.8586669 C562.46989003 128.89871682 562.46444384 132.9387142 562.46352291 136.97878027 C562.46158546 143.36538118 562.44355013 149.75187312 562.42276478 156.13843679 C562.3735306 172.00332543 562.34268344 187.86824375 562.32146168 203.73319387 C562.30494902 216.05827082 562.28216078 228.38325469 562.23844093 240.70826924 C562.21663404 247.05854232 562.20860959 253.4086387 562.21083367 259.75894666 C562.20916859 263.70890386 562.19513016 267.65874543 562.17762089 271.60866117 C562.17201471 273.44164519 562.17154227 275.27465311 562.17655849 277.10763884 C562.18268565 279.60862828 562.17049424 282.10888563 562.15375233 284.60981131 C562.15996414 285.33637186 562.16617596 286.06293242 562.17257601 286.81150997 C562.11908377 291.19225305 561.420128 293.93619506 558.76848316 297.44199514 C553.36000738 301.49397975 546.01023795 303.11199241 539.63567066 305.02402639 C538.55202229 305.35473135 537.46837391 305.68543631 536.3518877 306.02616262 C532.78500002 307.11101665 529.2146361 308.18377069 525.64348316 309.25449514 C524.40332447 309.62815207 523.16316578 310.00180899 521.88542652 310.38678885 C430.03318671 338.04000429 336.6402989 360.76367092 161.76848316 389.44199514 C163.37756981 391.05108179 165.26171407 390.85126573 167.48650074 391.11875296 C168.49818317 391.24288565 169.50986561 391.36701834 170.55220509 391.49491262 C171.66127216 391.62698111 172.77033924 391.75904959 173.91301441 391.89512014 C176.2726779 392.18447227 178.63229531 392.47420037 180.99187183 392.76426077 C182.2321413 392.91548391 183.47241077 393.06670706 184.75026417 393.22251272 C227.3220197 398.43999041 227.3220197 398.43999041 245.76848316 402.44199514 C247.41034595 402.7963262 247.41034595 402.7963262 249.08537769 403.15781546 C263.34687239 406.31442985 277.2141327 410.39269268 291.01848316 415.12949514 C291.7026128 415.3635607 292.38674244 415.59762625 293.09160328 415.83878469 C313.18471891 422.75812748 313.18471891 422.75812748 317.76848316 428.44199514 C320.48742714 436.59882708 317.74362596 444.45275157 315.61223316 452.45371389 C315.27358185 453.75634212 314.93601602 455.05925295 314.5994463 456.36242056 C313.87612469 459.15804475 313.14785345 461.95230789 312.41551685 464.74558401 C310.45195166 472.24041358 308.52416133 479.74442976 306.60442066 487.25058889 C306.30616194 488.41569431 306.30616194 488.41569431 306.00187778 489.60433722 C302.91271633 501.69482929 299.98838807 513.81789677 297.18254566 525.97715139 C296.99986385 526.76864269 296.81718204 527.56013399 296.62896442 528.37560987 C294.85462754 536.07430703 293.09838807 543.77702849 291.3585043 551.48358202 C290.71518684 554.32851064 290.06717334 557.17235872 289.41851902 560.01607466 C288.97829353 561.95622552 288.54581676 563.89812955 288.11360645 565.84008169 C284.79304425 580.41743406 284.79304425 580.41743406 280.76848316 584.44199514 C272.68638899 585.90888814 265.74626672 582.93262809 258.39348316 579.94199514 C215.990606 563.52571994 170.71247424 555.22712611 125.26848316 555.19199514 C124.47023121 555.1913204 123.67197926 555.19064566 122.84953785 555.18995047 C51.18500746 555.28492798 -21.84347159 575.30712087 -76.23151684 623.44199514 C-77.55409496 624.59828421 -77.55409496 624.59828421 -78.90339184 625.77793264 C-88.5511732 634.31711801 -97.27144489 643.30726437 -105.23151684 653.44199514 C-106.02300121 654.42812796 -106.81448559 655.41426077 -107.62995434 656.43027639 C-142.99708193 701.22491906 -162.21257412 757.2540976 -174.23151684 812.44199514 C-174.46709301 813.52077932 -174.70266918 814.5995635 -174.94538403 815.71103811 C-194.25577537 905.8583358 -185.42093862 998.79535954 -122.36042309 1151.72715139 C-118.30575611 1157.91585362 -113.94684063 1163.73869875 -109.23151684 1169.44199514 C-108.79097973 1169.97727835 -108.35044262 1170.51256155 -107.8965559 1171.06406546 C-104.72770947 1174.90311504 -101.50246126 1178.68964868 -98.23151684 1182.44199514 C-97.79275219 1182.94537405 -97.35398754 1183.44875296 -96.90192699 1183.96738577 C-92.34365712 1189.16418803 -87.74163837 1194.16770408 -82.43073559 1198.60215139 C-80.81989356 1199.94976524 -79.24354879 1201.33890623 -77.68854809 1202.75058889 C-29.24265772 1245.82071336 35.97577686 1263.08023146 99.33098316 1266.62949514 C100.09375568 1266.67246725 100.85652821 1266.71543936 101.64241505 1266.75971365 C155.56941495 1269.72331076 209.92452901 1262.32395416 261.28020191 1245.66855764 C262.14653248 1245.38826712 263.01286304 1245.10797659 263.90544605 1244.81919241 C265.49837737 1244.29759376 267.08784151 1243.76520743 268.6725359 1243.21909475 C273.13536244 1241.73352722 277.00894488 1240.82501796 281.76848316 1241.44199514 C285.03435206 1244.66956494 285.51473305 1248.08086502 286.28410816 1252.50449514 C286.41669025 1253.24728216 286.54927235 1253.99006918 286.68587208 1254.75536489 C287.1403698 1257.31587204 287.57909116 1259.87885573 288.01848316 1262.44199514 C288.34563937 1264.30083723 288.6739755 1266.15947194 289.00334644 1268.01792288 C289.78396589 1272.43037798 290.55828824 1276.84389292 291.3300066 1281.25791311 C293.04882388 1291.06438779 294.80371824 1300.86438784 296.55754566 1310.66465139 C296.89515523 1312.55156275 297.23276101 1314.43847478 297.57036304 1316.32538748 C298.08183304 1319.18402844 298.59331361 1322.0426675 299.10486317 1324.90129423 C300.2933815 1331.54403705 301.47948176 1338.18720819 302.66399097 1344.83066702 C302.8259691 1345.73909322 302.98794724 1346.64751942 303.15483379 1347.58347368 C303.77761421 1351.07652484 304.4003306 1354.56958735 305.02271366 1358.06270933 C305.30921093 1359.67064336 305.59580156 1361.27856075 305.88249493 1362.88645983 C306.15046371 1364.3897133 306.41813048 1365.89302065 306.685462 1367.39638758 C307.56480584 1372.33299213 308.47311268 1377.26358064 309.41280079 1382.1890502 C310.18199789 1387.06125879 310.46738972 1391.52000211 308.76848316 1396.19199514 C302.67728858 1403.04458905 293.72742674 1405.49989635 285.26848316 1408.25449514 C284.29739613 1408.57406683 284.29739613 1408.57406683 283.30669117 1408.90009451 C241.6605041 1422.55808232 198.23955369 1429.59888041 154.64348316 1433.19199514 C153.92678455 1433.25107046 153.21008595 1433.31014578 152.4716692 1433.37101126 C148.2743742 1433.71087369 144.07577476 1434.0199141 139.87413502 1434.30097342 C138.48595652 1434.39394383 137.09796553 1434.48976428 135.71019459 1434.58863211 C120.73238989 1435.63712678 105.73670344 1435.62947759 90.72990894 1435.62729788 C87.85679737 1435.6272171 84.98384689 1435.63409935 82.11076832 1435.64780569 C57.28789411 1435.7641841 32.60574698 1434.90427671 7.95598316 1431.69199514 C6.99154285 1431.56844152 6.99154285 1431.56844152 6.0076189 1431.44239187 C-42.26277068 1425.21219137 -88.72649403 1412.09595774 -133.23151684 1392.44199514 C-134.5727058 1391.85321585 -134.5727058 1391.85321585 -135.94098949 1391.25254202 C-149.53483738 1385.22500595 -162.40748267 1377.94796209 -175.23151684 1370.44199514 C-176.05071606 1369.96471975 -176.86991528 1369.48744436 -177.71393871 1368.99570608 C-189.39674819 1362.15236181 -200.39451354 1354.55085647 -211.23151684 1346.44199514 C-212.13426342 1345.77103811 -212.13426342 1345.77103811 -213.05524731 1345.08652639 C-234.04540184 1329.44468008 -254.30975675 1311.44695728 -271.23151684 1291.44199514 C-272.39167309 1290.11554983 -272.39167309 1290.11554983 -273.57526684 1288.76230764 C-296.84683803 1261.99102153 -315.30951682 1232.04180974 -331.23151684 1200.44199514 C-331.86887768 1199.19724417 -331.86887768 1199.19724417 -332.51911449 1197.92734671 C-368.75265281 1126.89639922 -386.18882353 1042.55411829 -392.23151684 932.44199514 C-392.25641186 931.24365042 -392.25641186 931.24365042 -392.28180981 930.02109671 C-392.37193672 925.15869437 -392.33251239 920.30350897 -392.23151684 915.44199514 C-392.2136311 914.46520803 -392.19574535 913.48842093 -392.17731762 912.48203421 C-390.79075024 844.44914447 -378.50555529 777.98381936 -357.23151684 713.44199514 C-356.83287426 712.2268926 -356.43423168 711.01179007 -356.02350903 709.75986624 C-347.89298003 685.14262408 -337.78207136 661.63963727 -326.23151684 638.44199514 C-325.50859447 636.98213186 -325.50859447 636.98213186 -324.77106762 635.49277639 C-306.79281509 599.40233244 -283.36171 567.14099397 -256.23151684 537.44199514 C-255.35237621 536.45844046 -254.47323559 535.47488577 -253.56745434 534.46152639 C-218.65265247 495.6546612 -174.12969319 465.17794404 -127.35700512 442.48252249 C-125.14758781 441.4009079 -122.95353222 440.2914728 -120.75886059 439.18027639 C-93.96756937 425.80784681 -64.34146225 414.58494954 -35.23151684 407.44199514 C-35.78103952 407.438685 -36.33056221 407.43537485 -36.8967371 407.4319644 C-50.5949387 407.34887227 -64.29305242 407.25627806 -77.99112797 407.15446806 C-84.61681127 407.10542744 -91.24248402 407.05923889 -97.86823559 407.02012014 C-126.45070744 406.84924495 -155.00885507 406.48820569 -183.57526684 405.48496389 C-184.75223 405.44380579 -185.92919315 405.40264769 -187.14182186 405.36024237 C-234.23191185 403.68329534 -281.3266039 400.46007165 -328.13386059 394.97324514 C-329.65605961 394.79527899 -329.65605961 394.79527899 -331.20901012 394.61371756 C-335.93605196 394.05684916 -340.65997689 393.48244185 -345.38117504 392.8780303 C-359.92967714 391.06347992 -373.16071577 390.37472345 -385.60651684 399.37949514 C-391.75493616 404.4377692 -396.96993253 410.49192487 -402.23151684 416.44199514 C-402.8928059 417.18965139 -403.55409496 417.93730764 -404.23542309 418.70762014 C-405.33861329 419.96694632 -406.43773457 421.22985126 -407.53229809 422.49668264 C-409.52558112 424.77864804 -411.56644711 427.01428088 -413.60651684 429.25449514 C-417.50393131 433.57325172 -421.20452039 438.01961566 -424.86042309 442.54355764 C-426.92817329 445.07118639 -429.03741929 447.55582787 -431.16926098 450.02939749 C-464.40985161 488.71858786 -487.3747169 532.3577081 -487.54401684 584.25449514 C-487.54696758 585.05067251 -487.54991833 585.84684988 -487.55295849 586.66715384 C-487.56455673 600.50437105 -486.20432985 613.7514818 -483.76179028 627.38291311 C-482.89821835 632.36475299 -482.2191569 637.36922251 -481.54401684 642.37949514 C-481.42502026 643.22495901 -481.30602367 644.07042288 -481.18342113 644.94150686 C-479.34865657 658.29943954 -478.99010296 671.54043545 -478.98151684 685.00449514 C-478.98084209 685.95774679 -478.98016735 686.91099844 -478.97947216 687.8931365 C-478.99707505 703.60099858 -479.71757379 718.90800454 -482.23151684 734.44199514 C-482.3978059 735.49483694 -482.56409496 736.54767874 -482.73542309 737.63242483 C-489.18991568 777.27974324 -503.1121772 815.5390391 -522.18854809 850.82871389 C-526.19505965 858.25446334 -529.81641659 865.81850393 -533.29401684 873.50449514 C-533.61033062 874.20174704 -533.9266444 874.89899893 -534.25254345 875.61737967 C-547.52212233 904.96798296 -558.5712105 935.24097388 -569.39043713 965.56276846 C-571.05368679 970.21665753 -572.75854288 974.85055475 -574.51716137 979.46933889 C-574.89260586 980.4669927 -575.26805035 981.46464651 -575.65487194 982.49253225 C-576.37962233 984.41520016 -577.11414519 986.33422128 -577.85979748 988.24887991 C-578.18492825 989.11698294 -578.51005901 989.98508596 -578.84504223 990.87949514 C-579.1373019 991.64133108 -579.42956158 992.40316702 -579.7306776 993.18808889 C-580.33153761 995.89211452 -579.93460344 997.78757667 -579.23151684 1000.44199514 C-578.50190746 1000.67684622 -577.77229809 1000.91169729 -577.02057934 1001.15366507 C-575.97643871 1001.48986868 -574.93229809 1001.82607229 -573.85651684 1002.17246389 C-572.06612988 1002.74891653 -572.06612988 1002.74891653 -570.23957348 1003.33701468 C-567.52443845 1004.21189946 -564.81018353 1005.08945255 -562.09650707 1005.96885061 C-554.89648134 1008.30065191 -547.69261563 1010.61755987 -540.47263622 1012.88695669 C-536.94316295 1013.99832862 -533.41712809 1015.12038176 -529.89142895 1016.2436614 C-528.18523582 1016.78449447 -526.4775849 1017.32075395 -524.76838207 1017.85199881 C-506.47447036 1023.5434831 -485.1259825 1030.82462233 -475.06354809 1048.49277639 C-469.79475111 1061.62766464 -473.63836884 1076.55070132 -478.8977766 1088.98154593 C-484.16025646 1101.0161819 -490.51473074 1112.22281171 -497.98151684 1123.03965139 C-499.4832411 1125.92577772 -499.90959889 1127.24321675 -499.23151684 1130.44199514 C-497.40592394 1132.55871249 -495.70313669 1134.25922433 -493.60651684 1136.06699514 C-493.02619701 1136.58552053 -492.44587719 1137.10404593 -491.84797192 1137.63828421 C-487.66848584 1141.3247823 -483.32551428 1144.78269772 -478.91901684 1148.19199514 C-468.28949306 1156.42613328 -459.5731967 1164.65205897 -457.39948559 1178.59824514 C-456.45904139 1194.52018416 -462.51210227 1211.03753409 -468.95417309 1225.36777639 C-470.11177338 1228.15380523 -470.68811028 1230.08279394 -470.73151684 1233.06699514 C-470.76245434 1233.78113577 -470.79339184 1234.49527639 -470.82526684 1235.23105764 C-469.89947595 1238.67841056 -467.92848501 1240.17317524 -465.23151684 1242.44199514 C-463.08354607 1243.56290873 -460.89110522 1244.60130941 -458.66901684 1245.56699514 C-442.58740982 1253.07500635 -432.23084905 1267.03876757 -426.14167309 1283.36387014 C-419.37786603 1303.4766247 -418.99893375 1324.99834222 -418.98151684 1346.00449514 C-418.98017742 1346.96375906 -418.97883801 1347.92302298 -418.977458 1348.9113555 C-418.98480131 1373.38534379 -420.87203822 1397.63152861 -424.31672192 1421.86484671 C-426.13666234 1434.9449819 -426.27979004 1448.32237535 -418.23151684 1459.44199514 C-412.08466852 1466.01769335 -404.58541468 1467.5714164 -395.85651684 1467.87949514 C-390.05169485 1467.70469085 -384.59375683 1466.88627249 -378.91120434 1465.71543264 C-378.03758251 1465.53744635 -377.16396069 1465.35946005 -376.26386547 1465.17608023 C-367.33009331 1463.31638861 -358.53184774 1461.03327244 -349.73151684 1458.62949514 C-347.9865005 1458.15823164 -346.24146403 1457.68704267 -344.49640942 1457.21592093 C-331.04227866 1453.5642561 -317.65489433 1449.69020858 -304.27039623 1445.79242849 C-272.85272856 1436.64818154 -241.70360389 1427.89807646 -209.23151684 1423.44199514 C-207.85745678 1423.24718557 -207.85745678 1423.24718557 -206.45563793 1423.04844046 C-149.14236923 1415.2315018 -85.54943272 1426.29078578 -38.48542309 1461.16465139 C-34.99167502 1463.83376721 -31.60057887 1466.61797161 -28.23151684 1469.44199514 C-27.665135 1469.91218069 -27.09875317 1470.38236624 -26.51520824 1470.86679983 C-11.30073167 1483.53052589 3.92729658 1497.02632852 16.78410816 1512.11777639 C18.38057632 1513.98765544 19.99626679 1515.83349367 21.62785816 1517.67246389 C70.08213459 1572.51379401 70.08213459 1572.51379401 68.76848316 1609.44199514 C68.10848316 1609.44199514 67.44848316 1609.44199514 66.76848316 1609.44199514 C65.35219327 1607.40607843 64.05152408 1605.37253533 62.76848316 1603.25449514 C50.17796573 1583.10812994 33.78307608 1565.40775396 17.08098316 1548.62949514 C16.38021656 1547.92405569 15.67944996 1547.21861624 14.95744801 1546.49179983 C10.98471124 1542.5312121 6.91153955 1538.75125351 2.66374683 1535.0877471 C-0.19585873 1532.60460899 -2.96137629 1530.02395261 -5.73151684 1527.44199514 C-9.86605502 1523.60663962 -14.02750782 1519.81785531 -18.29792309 1516.13340139 C-20.51943859 1514.19013632 -22.68330142 1512.18909911 -24.85651684 1510.19199514 C-53.91153243 1484.07362738 -89.34849845 1467.56173655 -128.82917309 1467.20371389 C-129.72821865 1467.19387472 -130.62726421 1467.18403555 -131.55355358 1467.17389822 C-153.46998726 1466.98401313 -174.58825267 1467.69155764 -196.23151684 1471.44199514 C-197.52879711 1471.66210257 -198.82607738 1471.88220999 -200.16266918 1472.10898733 C-238.85834172 1478.78584479 -276.77149669 1489.89580086 -314.5873518 1500.29102468 C-339.5695855 1507.15152906 -364.55431636 1513.70249387 -390.23151684 1517.44199514 C-390.93566723 1517.54512014 -391.63981762 1517.64824514 -392.3653059 1517.75449514 C-408.71671463 1519.8633825 -427.36713279 1520.30875838 -443.23151684 1515.44199514 C-444.1299934 1515.17515921 -445.02846996 1514.90832327 -445.95417309 1514.63340139 C-460.60568259 1509.53820876 -470.88355274 1498.33755964 -477.50031567 1484.72031546 C-487.90871967 1462.11264587 -487.24636644 1436.10981371 -485.51056957 1411.79599905 C-482.28141233 1367.91457458 -482.28141233 1367.91457458 -487.23151684 1324.44199514 C-487.40312328 1323.61570608 -487.57472973 1322.78941702 -487.75153637 1321.93808889 C-490.05419922 1311.15528878 -493.21078657 1301.77482878 -499.23151684 1292.44199514 C-499.62983715 1291.82195608 -500.02815746 1291.20191702 -500.43854809 1290.56308889 C-506.34650935 1282.56750881 -516.41835182 1278.06734675 -525.16608715 1273.90171194 C-532.45058035 1270.26872672 -537.11041153 1264.99835537 -540.23151684 1257.44199514 C-544.28422105 1241.2311783 -540.10759716 1222.05014954 -535.00104809 1206.52012014 C-534.12675708 1203.02295611 -533.98202348 1200.03383913 -534.23151684 1196.44199514 C-536.97320733 1192.75489414 -540.50174619 1190.52572658 -544.23151684 1187.87949514 C-559.7759868 1176.71345405 -573.94243429 1162.78496104 -578.23151684 1143.44199514 C-579.34856256 1125.6242002 -575.29857694 1111.77659962 -567.49763012 1095.85312796 C-567.06305492 1094.95046194 -566.62847973 1094.04779593 -566.18073559 1093.11777639 C-565.78201244 1092.31251516 -565.3832893 1091.50725393 -564.97248363 1090.67759085 C-564.13041182 1088.1369478 -564.32839461 1086.92230139 -565.23151684 1084.44199514 C-566.00003979 1084.27183889 -566.76856274 1084.10168264 -567.56037426 1083.92637014 C-600.28875397 1076.59107723 -637.4218255 1066.45213509 -656.91901684 1036.69199514 C-664.75655094 1024.298604 -668.35699533 1011.98891384 -669.23151684 997.44199514 C-669.2740559 996.74847952 -669.31659496 996.05496389 -669.36042309 995.34043264 C-670.8976182 942.25596155 -637.82538123 886.71711907 -612.85676098 841.89902639 C-599.10242132 817.08326612 -586.08488164 791.66736624 -575.23151684 765.44199514 C-574.90135571 764.6516387 -574.57119457 763.86128225 -574.23102856 763.04697561 C-569.1134885 750.65555146 -564.74503322 736.94319674 -564.23151684 723.44199514 C-564.17995434 722.22640921 -564.12839184 721.01082327 -564.07526684 719.75840139 C-563.58759208 702.84106354 -567.23822112 687.89616203 -572.21226025 671.79349661 C-593.68135114 602.24268903 -588.43086775 527.88703635 -556.23151684 462.44199514 C-555.44425632 460.79263821 -554.65781777 459.14288873 -553.87214184 457.49277639 C-543.77900646 436.55504001 -531.82172935 416.98799308 -516.50129223 399.49277639 C-512.15532544 394.47814479 -508.4319791 389.27040297 -505.23151684 383.44199514 C-504.88475903 382.81679983 -504.53800121 382.19160452 -504.18073559 381.54746389 C-500.13066824 372.73712781 -500.88831856 361.71769158 -501.90760231 352.30124617 C-503.66795212 335.95887098 -503.57792836 319.59152305 -503.59896255 303.17751217 C-503.60264915 300.65782681 -503.60890911 298.13816016 -503.61596394 295.61848211 C-503.64025887 286.80752863 -503.65347508 277.99663274 -503.65705395 269.18564749 C-503.66071602 260.99684981 -503.69085115 252.80842061 -503.73245853 244.61973608 C-503.76711598 237.54917611 -503.78260126 230.47873935 -503.78329998 223.408095 C-503.78409167 219.2011788 -503.7927879 214.99464407 -503.82129765 210.78781652 C-503.84741396 206.84919569 -503.84972048 202.91127579 -503.83364201 198.97260809 C-503.83182479 197.5298219 -503.83854306 196.08699569 -503.85446072 194.64429617 C-503.8748711 192.67461242 -503.86139777 190.70466461 -503.84624767 188.73493338 C-503.848259 187.63376621 -503.85027033 186.53259905 -503.85234261 185.39806318 C-503.01582402 181.41497165 -501.4062776 179.91516163 -498.23151684 177.44199514 C-495.98406601 176.85577154 -495.98406601 176.85577154 -493.66793346 176.91251516 C-492.34700144 176.92743065 -492.34700144 176.92743065 -490.99938393 176.94264746 C-490.04868554 176.98013727 -489.09798716 177.01762709 -488.11847973 177.05625296 C-487.10735402 177.0769346 -486.09622831 177.09761625 -485.05446243 177.11892462 C-481.77846678 177.19639348 -478.50593213 177.31472417 -475.23151684 177.44199514 C-474.17074303 177.47880896 -473.10996922 177.51562277 -472.01705074 177.55355215 C-464.02107379 177.83610511 -456.03114022 178.21769194 -448.04011059 178.61387014 C-445.44141778 178.73914759 -442.84270821 178.86407784 -440.24398327 178.98868704 C-434.8036765 179.2504306 -429.36360574 179.51669969 -423.92365551 179.78574514 C-418.49061875 180.05439755 -413.05737928 180.31824336 -407.62385082 180.57676077 C-344.7322223 183.57099452 -282.03798417 187.8553852 -219.33710766 193.56809378 C-146.78378745 201.10686629 -146.78378745 201.10686629 -73.98151684 203.75449514 C-71.90632182 203.74304818 -69.8311265 203.7316562 -67.7559309 203.72031546 C-51.52005397 203.5962432 -35.40347921 202.95143367 -19.23151684 201.44199514 C-17.85049904 201.31710993 -16.46947676 201.19227424 -15.08845043 201.06748343 C81.19950097 192.22935994 176.30462303 168.39055296 362.53799152 128.27942038 C366.38573164 127.4436788 370.23356772 126.60838006 374.08141041 125.77311087 C380.08635113 124.46929409 386.09085699 123.1634932 392.09499836 121.85600042 C394.30140005 121.37571885 396.50791574 120.89596071 398.71455097 120.41675329 C401.71937087 119.76400872 404.72372653 119.10917054 407.72795582 118.45371389 C408.60897402 118.26275703 409.48999222 118.07180017 410.39770794 117.87505674 C411.20009459 117.69951702 412.00248123 117.5239773 412.82918262 117.34311819 C413.52250502 117.19215185 414.21582741 117.04118551 414.93015957 116.88564444 C416.56622619 116.49080655 418.1718148 115.97421793 419.76848316 115.44199514 C385.00846071 119.90796345 350.26136531 124.45189395 315.55363941 129.30918264 C314.8303774 129.41037004 314.10711538 129.51155743 313.36193633 129.61581111 C306.71150932 130.54638584 300.06129222 131.4784542 293.41129303 132.41208124 C125.77921455 155.94622362 125.77921455 155.94622362 10.78825855 166.22910452 C8.75277365 166.37260382 6.71745565 166.51848793 4.68230152 166.66660452 C-69.37532846 172.05219551 -143.53566754 169.84738185 -217.58692455 165.59373617 C-220.15410932 165.44643662 -222.72136679 165.30047236 -225.28864574 165.15482473 C-267.94108706 162.72773871 -310.55555737 159.71565081 -353.16901684 156.69199514 C-354.94973391 156.56567003 -356.73045112 156.43934698 -358.51116848 156.31302595 C-362.15507643 156.05452077 -365.79898248 155.79598892 -369.44288731 155.53743982 C-378.01965526 154.92889665 -386.59643447 154.32051263 -395.17323685 153.7124548 C-397.13045684 153.5736945 -399.08767565 153.43491738 -401.04489326 153.2961235 C-471.92509381 148.27018632 -542.82063072 143.51429406 -613.73151684 138.94199514 C-615.54131503 138.82525017 -615.54131503 138.82525017 -617.38767481 138.70614672 C-675.49141009 134.95821927 -733.59933794 131.27954681 -791.71198559 127.67246389 C-792.93392258 127.59659316 -794.15585958 127.52072242 -795.41482496 127.44255257 C-818.93013805 125.98249641 -842.44558007 124.52459889 -865.96210784 123.0842225 C-874.52387303 122.55981054 -883.08551258 122.03338219 -891.64706498 121.50550777 C-896.55290062 121.20320382 -901.45880781 120.90220068 -906.36493015 120.60458326 C-944.01833808 118.31972635 -944.01833808 118.31972635 -961.23151684 116.44199514 C-956.27750817 110.49718474 -949.07937373 110.13145179 -941.82853222 109.25763845 C-941.00710369 109.15409485 -940.18567517 109.05055124 -939.33935487 108.94386995 C-936.59618311 108.59936796 -933.85210823 108.26268706 -931.10798168 107.92588186 C-929.13140147 107.67906641 -927.15488767 107.43171858 -925.17843533 107.18388128 C-920.90386481 106.64882765 -916.62890078 106.11707924 -912.35360622 105.58784246 C-905.44182395 104.73199255 -898.53107549 103.86799579 -891.62052441 103.00226736 C-890.44101558 102.8545223 -889.26150675 102.70677724 -888.04625523 102.55455506 C-885.63124795 102.25204199 -883.21624344 101.94950679 -880.80124164 101.64695001 C-877.09086845 101.18234032 -873.38041095 100.71840912 -869.66993427 100.25462675 C-843.4058411 96.97058474 -817.1500284 93.62246188 -790.89557934 90.26230764 C-789.70415278 90.10986829 -788.51272622 89.95742894 -787.28519583 89.80037022 C-769.78305026 87.56101283 -752.28146763 85.31728241 -734.78025246 83.07066584 C-732.14770024 82.73273802 -729.51514402 82.39484161 -726.8825798 82.05700731 C-643.99724882 71.42037236 -561.13735773 60.60629047 -474.60651684 49.06699514 C-473.38560644 48.90419262 -472.16469604 48.7413901 -470.90678835 48.57365417 C-425.7342738 42.54993507 -380.56502429 36.5019059 -335.39792651 30.43771356 C-190.79760847 11.02359155 -190.79760847 11.02359155 -133.91901684 5.62949514 C-132.93641888 5.53526266 -131.95382092 5.44103018 -130.94144726 5.34394217 C-124.06819832 4.69345542 -117.19015753 4.13027992 -110.30640697 3.60316992 C-108.05308598 3.42813487 -105.80040659 3.24587093 -103.54767895 3.06336355 C-69.04282386 0.30085612 -34.59513886 -0.08199239 0 0 Z " fill="#FFFFFF" transform="translate(983.2315168380737,130.55800485610962)"/>
<path d="M0 0 C0.78266965 -0.00297112 1.5653393 -0.00594224 2.37172621 -0.0090034 C4.99088561 -0.0176659 7.60999917 -0.01919657 10.22917175 -0.02069092 C12.10853167 -0.02532078 13.98789065 -0.03034567 15.86724854 -0.03573608 C20.97063228 -0.04884484 26.07400288 -0.05530193 31.17740083 -0.05974674 C34.36670944 -0.06267959 37.55601447 -0.06678478 40.74532127 -0.07125092 C50.72671962 -0.08492109 60.70810978 -0.09459041 70.68951684 -0.09845281 C82.20669164 -0.10293418 93.72374779 -0.12048782 105.24088651 -0.1494534 C114.14719823 -0.17107444 123.05347657 -0.1811573 131.95981425 -0.18249393 C137.27754478 -0.18354154 142.59516372 -0.18944025 147.91286659 -0.20731354 C152.91564578 -0.22380173 157.91822954 -0.22594604 162.92102623 -0.21717453 C164.75437824 -0.21640459 166.5877408 -0.22074116 168.42106628 -0.23063278 C170.92962397 -0.24337105 173.43749143 -0.23746555 175.94604492 -0.22705078 C176.66639366 -0.23510719 177.38674241 -0.24316359 178.1289199 -0.25146413 C184.40378142 -0.19080258 189.40468405 1.49829078 194.78849792 4.70294189 C201.67211693 11.76770877 205.56081987 21.70768931 209.88188171 30.48345947 C211.64345857 34.05997536 213.41894745 37.62956571 215.19474792 41.19903564 C215.54200928 41.89749603 215.88927063 42.59595642 216.24705505 43.31558228 C218.89527202 48.63044285 221.61868901 53.90104928 224.41349792 59.14044189 C228.11533353 66.08332627 231.66223201 73.09431669 235.16349792 80.14044189 C239.02501111 87.90662384 242.95551934 95.62479057 247.02287292 103.28497314 C250.92064471 110.64064279 254.72906281 118.04127728 258.5348053 125.44482422 C266.09872548 140.15872989 273.69863746 154.84842189 281.53849792 169.41778564 C282.78869549 171.74189845 284.0387343 174.0660958 285.28849792 176.39044189 C285.60430817 176.97751923 285.92011841 177.56459656 286.24549866 178.16946411 C291.73943658 188.39085333 297.07795883 198.68732524 302.3752594 209.01171875 C306.51328779 217.07173836 310.71895759 225.08456075 315.10099792 233.01544189 C320.17274372 242.19761071 324.99929681 251.4964379 329.78849792 260.82794189 C330.15850922 261.5487796 330.52852051 262.26961731 330.90974426 263.01229858 C332.35870641 265.83553083 333.80745598 268.65887201 335.25582886 271.48240662 C340.51739712 281.7344155 345.8837936 291.92869042 351.36271667 302.06622314 C359.98511105 318.04059414 368.34152286 334.13652646 376.57878113 350.31280518 C377.00610535 351.15118423 377.43342957 351.98956329 377.873703 352.85334778 C378.65432557 354.3855412 379.43387692 355.91828139 380.21183777 357.451828 C383.04649535 363.01768431 385.95309132 368.54425936 388.86784363 374.06842041 C393.95847942 383.72214795 398.96516428 393.41723306 403.93693542 403.13262939 C404.60316988 404.4336944 404.60316988 404.4336944 405.28286362 405.76104355 C414.99600246 424.73779104 424.56386565 443.78644168 434.08781433 462.85870361 C436.36274655 467.41434461 438.64139552 471.96811574 440.9209137 476.52146339 C449.76931692 494.19950382 458.60708291 511.87582743 467.03843689 529.75769043 C468.53357804 532.92422954 470.04308505 536.08383055 471.55226135 539.24369812 C480.73893661 558.48873492 489.74682563 577.80708237 498.50578308 597.25047302 C500.50415555 601.68572324 502.51728413 606.11399825 504.53849792 610.53887939 C519.94743822 644.31783193 534.44266458 678.4951742 548.56350708 712.83004761 C550.76692186 718.18707073 552.99406918 723.53356803 555.24015808 728.87286377 C555.94509781 730.60408541 556.57239147 732.36712254 557.16349792 734.14044189 C559.31712111 732.58427938 559.31712111 732.58427938 561.16349792 730.14044189 C561.50509095 726.8682401 561.50509095 726.8682401 561.03849792 723.13653564 C560.94659935 722.05829277 560.94659935 722.05829277 560.85284424 720.95826721 C560.71493877 719.35921967 560.56758177 717.7609677 560.41230774 716.16351318 C559.96529101 711.51822368 559.60173889 706.86585256 559.22209167 702.21466064 C559.13600143 701.18386383 559.04991119 700.15306702 558.96121216 699.09103394 C557.85357684 685.70380967 557.02812031 672.29887575 556.22599792 658.89044189 C556.18472023 658.20311855 556.14344254 657.51579521 556.100914 656.80764389 C552.13680716 590.64927952 549.69644207 524.39696353 548.16349792 458.14044189 C548.08850046 454.9916726 548.01330289 451.84290834 547.93772888 448.69415283 C547.64364846 435.80101224 547.42588134 422.90730148 547.22437286 410.01242447 C547.18408944 407.45017602 547.14315994 404.88793763 547.10155487 402.3257103 C545.97509417 332.82393226 545.94406294 263.31685862 545.92605495 193.80780315 C545.92513403 190.32346789 545.92420477 186.83913262 545.92326355 183.35479736 C545.92303922 182.49020363 545.92281489 181.62560989 545.92258377 180.73481635 C545.91858133 166.51303991 545.9008904 152.29131281 545.87790403 138.06955566 C545.85420856 123.28623026 545.84173092 108.50292999 545.84056211 93.7195853 C545.83965034 85.48890253 545.83401387 77.25828645 545.81574249 69.02762222 C545.80037441 62.08584406 545.79520592 55.14415379 545.8034806 48.20236184 C545.80738325 44.6726921 545.8064721 41.14319993 545.79242325 37.61355209 C545.77733689 33.78919694 545.78555027 29.96509169 545.79600525 26.14071655 C545.78794884 25.0320514 545.77989244 23.92338625 545.7715919 22.78112519 C545.8132236 16.28155356 545.98696227 9.71558051 550.54463077 4.58599961 C555.18611741 0.46136625 558.86482374 0.01313121 564.8658905 0.02520752 C566.08604355 0.02581177 567.30619659 0.02641602 568.56332397 0.02703857 C569.95739337 0.03337339 571.35146176 0.03993515 572.74552917 0.04669189 C574.25983628 0.05053604 575.774144 0.05414721 577.28845215 0.05755615 C602.90546364 0.13186628 628.5225112 0.37657502 654.13872635 0.58582306 C661.68466106 0.64741211 669.23060862 0.70735419 676.77655733 0.76719952 C692.23888518 0.88986278 707.70119637 1.01450543 723.16349792 1.14044189 C723.91493837 13.48792115 724.30806399 25.77356549 724.28654575 38.14257336 C724.28728775 39.87526232 724.28846883 41.60795115 724.29004225 43.34063956 C724.29308012 48.06294233 724.28996243 52.7852232 724.28576412 57.50752432 C724.28230417 62.65960172 724.28470558 67.8116771 724.28634161 72.96375495 C724.28840803 81.98013381 724.28678411 90.99650605 724.2827034 100.01288414 C724.27665251 113.41977652 724.27636907 126.82666476 724.27724539 140.23355826 C724.27855744 162.7893148 724.2752322 185.34506811 724.26922798 207.90082359 C724.26329891 230.22776999 724.25945157 252.55471519 724.25837517 274.88166237 C724.25834076 275.57589386 724.25830634 276.27012534 724.25827089 276.98539415 C724.25795768 283.32643543 724.25766999 289.66747672 724.25741291 296.00851801 C724.25677364 311.76932164 724.2558144 327.53012524 724.25463772 343.29092884 C724.2545844 344.00852007 724.25453108 344.72611129 724.25447615 345.46544771 C724.25185671 380.34417344 724.24555 415.22289837 724.23893738 450.10162354 C724.23664565 462.20033772 724.23437025 474.29905191 724.23216248 486.39776611 C724.23195705 487.52336174 724.23195705 487.52336174 724.23174748 488.67169668 C724.22539951 523.57736204 724.22167656 558.48302753 724.21862768 593.38869332 C724.21842962 595.65571648 724.21823042 597.92273964 724.218031 600.1897628 C724.21671118 615.21386014 724.21543654 630.23795749 724.21419214 645.26205484 C724.21171585 675.1544615 724.20897418 705.04686814 724.20605009 734.93927476 C724.20591085 736.36272292 724.2057718 737.78617108 724.20563293 739.20961924 C724.19724846 825.1322093 724.18329447 911.05479849 724.16349792 1023.14044189 C721.59268811 1023.3049177 719.02182039 1023.46837648 716.45090908 1023.63125157 C715.72631514 1023.67771481 715.00172119 1023.72417804 714.25516986 1023.77204926 C709.44478215 1024.07577602 704.66500447 1024.27820999 699.84613037 1024.31884766 C698.79384346 1024.32942967 698.79384346 1024.32942967 697.72029823 1024.34022546 C695.44169545 1024.36205704 693.16309866 1024.37781013 690.88444519 1024.39337158 C689.22182936 1024.40790909 687.55921647 1024.42278655 685.89660645 1024.43797302 C681.43431035 1024.4773781 676.97199095 1024.51096954 672.5096333 1024.54255962 C669.71473892 1024.56242468 666.9198531 1024.58324546 664.12496758 1024.60431671 C655.35833523 1024.6700177 646.59168767 1024.73190085 637.82499176 1024.78849578 C627.74206967 1024.85365821 617.65935828 1024.93189178 607.57662159 1025.02117801 C599.74953285 1025.08968026 591.92241299 1025.1464293 584.09517139 1025.19434476 C579.43312482 1025.22315108 574.77124141 1025.2568915 570.10933113 1025.3030014 C565.731904 1025.34599011 561.35461999 1025.37434527 556.97701836 1025.39165688 C555.37625225 1025.40046909 553.7755045 1025.41445374 552.17483521 1025.43414116 C533.80792143 1025.65323885 533.80792143 1025.65323885 526.77272034 1020.33218384 C521.53729933 1014.12444817 517.91443455 1007.53713592 514.39006042 1000.24200439 C513.77657566 998.99936149 513.16174772 997.75738092 512.54566956 996.51602173 C510.93594361 993.26445868 509.34282705 990.00505047 507.75376892 986.74334717 C506.16472356 983.48728622 504.56262691 980.23767467 502.96037292 976.98809814 C502.64785709 976.35425831 502.33534126 975.72041847 502.01335526 975.06737137 C501.38727317 973.79769695 500.76111525 972.52805991 500.13488007 971.258461 C499.20404303 969.37001225 498.27497078 967.48070255 497.34605408 965.59130859 C493.20996427 957.1896852 488.93316102 948.87600295 484.53215027 940.61065674 C481.95173921 935.76127976 479.44407587 930.8757477 476.94474792 925.98419189 C476.50971954 925.13311859 476.07469116 924.28204529 475.6264801 923.40518188 C473.86320957 919.95320728 472.10202301 916.50017121 470.34074402 913.04718018 C464.7736233 902.13710429 459.1470227 891.26227943 453.4271698 880.43145752 C450.47879952 874.84853017 447.56970517 869.24540455 444.66349792 863.64044189 C437.48460045 849.82153697 430.26009093 836.03130344 422.88493347 822.315979 C422.24860332 821.13247648 421.61229165 819.94896401 420.97599792 818.76544189 C420.6589389 818.175867 420.34187988 817.58629211 420.01521301 816.97885132 C414.74664523 807.1744371 409.60981092 797.30686889 404.52119446 787.40808105 C400.58739878 779.76059748 396.57643443 772.16594555 392.41349792 764.64044189 C385.58900692 752.28859887 379.22244578 739.70125117 372.79730225 727.13897705 C372.39865463 726.35957764 372.00000702 725.58017822 371.58927917 724.77716064 C371.19711716 724.01032959 370.80495514 723.24349854 370.40090942 722.45343018 C366.44673924 714.72792151 362.40725648 707.04910602 358.34562683 699.37969971 C350.39436137 684.31794697 342.58300994 669.18156144 334.74943542 654.05841064 C332.34269913 649.41271218 329.93087864 644.76970512 327.51506042 640.12872314 C321.8802414 629.296859 316.28040282 618.45390858 310.85949707 607.51321411 C308.19910813 602.16294469 305.45108166 596.86798725 302.64396667 591.59356689 C297.04672881 581.01179538 291.67708929 570.3191636 286.3321991 559.60821533 C284.73402366 556.40652021 283.13159437 553.20698033 281.5287323 550.00762939 C275.46146258 537.87698893 269.5207401 525.69327421 263.69352722 513.44561768 C261.4308698 508.69171601 259.13877201 503.95293325 256.82756042 499.22247314 C256.49395508 498.53942108 256.16034973 497.85636902 255.81663513 497.15261841 C255.14897345 495.78585296 254.48123882 494.41912315 253.81343079 493.0524292 C246.68147862 478.44323518 239.72800196 463.76367658 232.93888855 448.99151611 C231.32969209 445.49534252 229.70691544 442.00558534 228.08197021 438.51670837 C217.15609376 415.05750289 206.57457194 391.4637735 196.2820282 367.7199707 C195.17133107 365.15850652 194.05867055 362.59790226 192.94572449 360.03741455 C182.89189601 336.88871797 173.18712596 313.60969821 163.71086121 290.21856689 C163.30319519 289.21314346 162.89552917 288.20772003 162.47550964 287.17182922 C161.71763799 285.30138276 160.96117171 283.43036592 160.20646667 281.55863953 C159.20329026 279.08113394 158.18736833 276.60946042 157.16349792 274.14044189 C156.83186646 273.33124298 156.50023499 272.52204407 156.15855408 271.68832397 C154.29879269 267.29923506 152.39891772 263.72251381 149.16349792 260.14044189 C148.92876912 271.52789365 149.59233089 282.81575944 150.27412415 294.17700195 C152.52739189 332.13749542 153.88373437 370.13669874 155.16349792 408.14044189 C155.18871521 408.8878212 155.2139325 409.6352005 155.23991394 410.40522766 C157.9742609 491.69508429 159.07184414 573.05100505 160.38489723 864.8956604 C160.3856218 865.6356155 160.38634636 866.37557059 160.38709288 867.13794857 C160.38781635 867.87787908 160.38853982 868.61780959 160.38928521 869.38016224 C160.39000878 870.12000091 160.39073234 870.85983958 160.39147784 871.62209761 C160.39293307 873.11562652 160.39437594 874.60915544 160.39580642 876.10268438 C160.40665552 887.28777158 160.42514804 898.47282832 160.44749451 909.65789795 C160.47302974 922.4831327 160.48737148 935.3083282 160.48743689 948.13358939 C160.48773003 954.78657847 160.49317279 961.43949222 160.5110817 968.09246445 C160.52745933 974.25680332 160.52981725 980.42098422 160.52107501 986.58533716 C160.52032992 988.83224497 160.52469822 991.07916123 160.53458333 993.32604742 C160.54725102 996.38274866 160.54145371 999.43887804 160.5309906 1002.49557495 C160.53904681 1003.37855503 160.54710302 1004.26153511 160.55540335 1005.17127216 C160.50367211 1011.62273979 159.58242917 1016.65431811 154.91349792 1021.45294189 C147.39202142 1026.06839339 139.37606012 1025.4320032 130.81803894 1025.4151001 C129.36202229 1025.41945193 127.90600794 1025.42463665 126.44999695 1025.43058777 C122.50989135 1025.4439377 118.56988191 1025.44456097 114.62975812 1025.44202447 C111.33460789 1025.44095213 108.03947691 1025.4458448 104.74433082 1025.45062989 C96.96794144 1025.46171102 89.19160036 1025.46217021 81.41520691 1025.45611572 C73.4052585 1025.45007511 65.3954857 1025.46239231 57.38556725 1025.48368579 C50.49617477 1025.5013239 43.60683808 1025.50729971 36.71742386 1025.50404805 C32.60809197 1025.50223872 28.4988854 1025.50483639 24.38957405 1025.51876259 C20.52433059 1025.53137253 16.65936024 1025.52936713 12.79412079 1025.5163517 C11.38003635 1025.51399332 9.9659325 1025.51669405 8.55187035 1025.52497482 C-0.27278747 1025.57290464 -7.38030067 1025.50734962 -14.64900208 1020.01544189 C-21.08646447 1011.55477704 -20.2606741 1001.56608279 -20.2140255 991.46363544 C-20.21715697 989.75294178 -20.22160226 988.0422501 -20.2272386 986.33156285 C-20.23892951 981.62362132 -20.23192635 976.91586416 -20.22190474 972.2079256 C-20.2143016 967.08875964 -20.22407161 961.96962217 -20.23163474 956.85046023 C-20.24247876 947.87618327 -20.2421356 938.90196044 -20.23449326 929.92768097 C-20.22315987 916.58291977 -20.22893967 903.23820435 -20.23811818 889.89344348 C-20.25301163 867.44453319 -20.25354928 844.99564313 -20.24538803 822.54673195 C-20.24513964 821.86317802 -20.24489126 821.1796241 -20.24463535 820.47535642 C-20.24438656 819.79071022 -20.24413777 819.10606402 -20.24388144 818.40067097 C-20.23631385 797.54795642 -20.23435681 776.69525066 -20.23794937 755.84253502 C-20.23818181 754.44648989 -20.23841328 753.05044475 -20.23864378 751.65439962 C-20.23957517 746.04439549 -20.24053117 740.43439135 -20.24152307 734.82438723 C-20.24427414 719.14211164 -20.24598591 703.45983603 -20.24688148 687.77756023 C-20.24692242 687.06341989 -20.24696336 686.34927954 -20.24700554 685.61349857 C-20.24823344 662.85666674 -20.24485231 640.09983796 -20.23833275 617.34300709 C-20.238122 616.60486255 -20.23791125 615.86671802 -20.23769412 615.10620546 C-20.23425921 603.11895797 -20.23060086 591.13171055 -20.2269236 579.14446313 C-20.21235209 531.59306541 -20.21303278 484.04169302 -20.22761536 436.49029541 C-20.23127885 424.50554564 -20.23491197 412.52079587 -20.23833275 400.53604603 C-20.23854409 399.79812667 -20.23875544 399.06020731 -20.23897319 398.29992675 C-20.24544024 375.56426548 -20.24818486 352.82860631 -20.24688148 330.09294415 C-20.24682036 329.0225794 -20.24682036 329.0225794 -20.24675799 327.93059112 C-20.24582062 312.26762659 -20.24391984 296.60466228 -20.24114998 280.94169798 C-20.24016253 275.33763462 -20.23922329 269.73357125 -20.23829784 264.12950788 C-20.23806568 262.73533586 -20.23782949 261.34116385 -20.23758925 259.94699184 C-20.23400649 239.09712222 -20.23706161 218.24726249 -20.24463535 197.3973941 C-20.24488373 196.71359179 -20.24513212 196.02978948 -20.24538803 195.32526588 C-20.24563608 194.64272243 -20.24588413 193.96017898 -20.24613969 193.2569524 C-20.25440789 170.25408684 -20.25137802 147.25124336 -20.2355458 124.24837974 C-20.22671474 110.97885301 -20.22619383 97.7093867 -20.23748432 84.43986149 C-20.24418768 75.58742368 -20.24006809 66.73503454 -20.22697002 57.88260397 C-20.21980205 52.83154371 -20.21745881 47.7806039 -20.22818796 42.72954724 C-20.23783922 38.13936013 -20.23381958 33.54940092 -20.21864598 28.9592306 C-20.21561117 27.304377 -20.21765761 25.64950476 -20.2252638 23.99466586 C-20.23483475 21.75432607 -20.22602154 19.51478458 -20.21254957 17.27448207 C-20.21234629 16.03208231 -20.21214301 14.78968255 -20.21193358 13.5096343 C-19.70325026 8.94461519 -18.28087781 5.53667177 -14.96150208 2.32794189 C-10.30768919 -0.27271825 -5.20123527 -0.0061988 0 0 Z " fill="#FFFFFF" transform="translate(3961.8365020751953,526.8595581054688)"/>
<path d="M0 0 C1.29273394 0.00040031 1.29273394 0.00040031 2.61158371 0.00080872 C28.7678764 0.0109646 54.84494677 0.18320114 80.9375 2.1875 C82.25551605 2.28578094 82.25551605 2.28578094 83.60015869 2.38604736 C167.41189303 8.64235168 253.70607075 25.18719399 317.67578125 84.109375 C319.72776416 85.99478935 321.81901954 87.81520033 323.9375 89.625 C331.56163394 96.29803473 338.41248991 103.49768471 344.7265625 111.41796875 C346.17526804 113.23269001 347.64863988 115.02805226 349.1484375 116.80078125 C389.1417925 164.16133323 406.67648591 227.33002631 410.9375 288.1875 C410.99244629 288.86603027 411.04739258 289.54456055 411.10400391 290.24365234 C416.02770247 351.20165496 407.5448035 416.12156531 379.9375 471.1875 C379.30376465 472.46923096 379.30376465 472.46923096 378.65722656 473.77685547 C363.46645246 504.31929939 342.32266557 535.56482637 315.84765625 557.58203125 C314.50914517 558.7070375 313.20663259 559.87562662 311.93359375 561.07421875 C278.90257359 592.15210032 235.59304453 613.82012245 192.9375 628.1875 C191.89625977 628.54005859 190.85501953 628.89261719 189.78222656 629.25585938 C161.55938628 638.67820442 132.37567124 645.02253479 102.9375 649.1875 C101.31545654 649.41711426 101.31545654 649.41711426 99.66064453 649.65136719 C84.98927926 651.65129292 70.27817302 652.6189435 55.5 653.375 C54.26071747 653.43945816 54.26071747 653.43945816 52.99639893 653.50521851 C33.35218661 654.50242265 13.88597756 654.23456474 -5.75 653.1875 C-8.51877504 653.04298735 -11.287612 652.89999737 -14.05659485 652.75952148 C-15.75528458 652.67305051 -17.45385662 652.58421764 -19.15226746 652.49243164 C-30.82447912 651.63736639 -30.82447912 651.63736639 -42.0625 654.1875 C-45.7617261 657.8867261 -46.95366193 660.76289665 -47.18439716 665.90302283 C-47.1829333 666.95268254 -47.18146943 668.00234226 -47.1799612 669.08380985 C-47.18071886 670.29721202 -47.18147651 671.51061419 -47.18225712 672.76078612 C-47.17802215 674.1091655 -47.17369868 675.45754461 -47.16929626 676.80592346 C-47.16830038 678.23696635 -47.16775058 679.66800961 -47.16760927 681.09905285 C-47.16596124 685.03654085 -47.15808645 688.97399587 -47.14924753 692.91147339 C-47.14082791 697.15636679 -47.13822001 701.40126398 -47.13499451 705.64616394 C-47.1286911 713.0049098 -47.11894712 720.36364459 -47.10709953 727.7223835 C-47.09013136 738.37390716 -47.08057213 749.02542806 -47.0732208 759.67696225 C-47.06126821 776.97352824 -47.04631801 794.2700899 -47.02807617 811.56665039 C-47.02698605 812.60223691 -47.02589593 813.63782343 -47.02477277 814.70479136 C-47.00917261 829.39121182 -46.99058119 844.07762699 -46.9707749 858.76404231 C-46.96938158 859.79750649 -46.96798827 860.83097067 -46.96655273 861.89575195 C-46.96446244 863.44405815 -46.96446244 863.44405815 -46.96232992 865.02364326 C-46.93927942 882.2463388 -46.92397325 899.46903092 -46.91499335 916.6917395 C-46.90914501 927.31286357 -46.89678533 937.93394069 -46.87602056 948.55504625 C-46.86229126 955.83807368 -46.85581841 963.12108474 -46.85501044 970.40412498 C-46.8543078 974.60392245 -46.85034436 978.80364992 -46.8375473 983.00342941 C-46.82587827 986.85337357 -46.82357086 990.70320921 -46.82848949 994.55316686 C-46.82871083 996.59479158 -46.81907037 998.63641015 -46.80899948 1000.67801005 C-46.86535221 1021.30178023 -46.86535221 1021.30178023 -53.0625 1028.1875 C-58.73287942 1031.61335424 -63.28266315 1032.31194512 -69.82965088 1032.32794189 C-70.5093773 1032.33091302 -71.18910371 1032.33388414 -71.8894279 1032.3369453 C-74.16620662 1032.34561414 -76.44293265 1032.34713901 -78.71972656 1032.34863281 C-80.35263684 1032.3532623 -81.98554604 1032.35828713 -83.61845398 1032.36367798 C-88.0545628 1032.37679199 -92.49065648 1032.38324506 -96.92678165 1032.38768864 C-99.69948848 1032.39062115 -102.47219119 1032.39472632 -105.24489594 1032.39919281 C-113.9234939 1032.41286551 -122.60208244 1032.42253311 -131.28069043 1032.4263947 C-141.29235953 1032.43087413 -151.30389201 1032.44841766 -161.31551957 1032.4773953 C-169.05833917 1032.49902663 -176.80112038 1032.50909977 -184.54396987 1032.51043582 C-189.16643385 1032.51148286 -193.78876936 1032.51736923 -198.41120148 1032.53525543 C-202.76145948 1032.55176108 -207.11149281 1032.55387955 -211.46177101 1032.54511642 C-213.05485194 1032.54434737 -214.64794507 1032.54867143 -216.24099541 1032.55857468 C-234.19138769 1032.66358341 -234.19138769 1032.66358341 -239.60063553 1027.80632401 C-244.03266491 1022.87717662 -244.18727134 1018.89796269 -244.19426119 1012.49240834 C-244.19635794 1011.81601092 -244.19845468 1011.1396135 -244.20061496 1010.44271919 C-244.20646024 1008.16125845 -244.20517316 1005.87985675 -244.20395851 1003.59838963 C-244.20670827 1001.94510127 -244.20989446 1000.29181359 -244.21347916 998.63852683 C-244.22211089 994.06666924 -244.22449132 989.49482595 -244.22590676 984.92296121 C-244.22852917 979.95984149 -244.23689772 974.99673102 -244.24454916 970.03361696 C-244.2571693 961.32536648 -244.26605863 952.61711828 -244.27253914 943.90886116 C-244.28218609 930.95920373 -244.29749916 918.00955738 -244.31395121 905.05990703 C-244.34144505 883.27563462 -244.36415969 861.49135957 -244.38399124 839.70707893 C-244.38459561 839.04323739 -244.38519998 838.37939584 -244.38582266 837.69543789 C-244.38642798 837.03053433 -244.38703331 836.36563077 -244.38765697 835.68057861 C-244.40608959 815.43699261 -244.42637477 795.19340951 -244.44849777 774.94982719 C-244.44997561 773.59507118 -244.45145312 772.24031518 -244.45293029 770.88555917 C-244.45886796 765.44147858 -244.46481357 759.997398 -244.4707709 754.55331744 C-244.48741851 739.3332643 -244.50372049 724.1132108 -244.5197506 708.89315701 C-244.5204807 708.199996 -244.5212108 707.506835 -244.52196302 706.79266913 C-244.54521023 684.69738026 -244.56692293 662.60209016 -244.58759499 640.50679874 C-244.58860141 639.43148441 -244.58860141 639.43148441 -244.58962816 638.33444656 C-244.60052027 626.69239544 -244.61133889 615.05034425 -244.62215119 603.40829306 C-244.6650197 557.25550632 -244.71299332 511.1027278 -244.765625 464.94995117 C-244.77887849 453.32453191 -244.7921215 441.69911263 -244.80529213 430.07369328 C-244.80610333 429.35787285 -244.80691453 428.64205243 -244.80775032 427.90454047 C-244.83273889 405.84068868 -244.85646868 383.77683583 -244.87883568 361.71298122 C-244.87953803 361.02020595 -244.88024038 360.32743067 -244.88096401 359.61366221 C-244.89636839 344.40507321 -244.91144817 329.19648391 -244.92623515 313.9878943 C-244.93152765 308.54579962 -244.93683664 303.10370495 -244.9421505 297.6616103 C-244.94347183 296.30774414 -244.9447918 294.95387799 -244.94611042 293.60001183 C-244.96712305 272.02963804 -244.99088034 250.4592684 -245.01592845 228.88889895 C-245.04183281 206.55474809 -245.06391105 184.22059627 -245.08168437 161.88643742 C-245.09203358 149.00945725 -245.1051727 136.13248707 -245.12232267 123.25551412 C-245.13349497 114.655635 -245.14098668 106.05575776 -245.14547553 97.45587256 C-245.14813628 92.55473808 -245.15239077 87.65361937 -245.16110714 82.7524916 C-245.16900939 78.2901336 -245.17221555 73.82779733 -245.1717419 69.36543258 C-245.1723818 67.76466045 -245.17470139 66.16388783 -245.17894898 64.5631212 C-245.26070032 32.35364526 -245.26070032 32.35364526 -237.0625 23.1875 C-230.03260005 17.63414037 -221.82055338 16.42449893 -213.20703125 15.19140625 C-212.06477585 15.02233765 -210.92252045 14.85326904 -209.74565125 14.67907715 C-197.65145278 12.92272737 -185.52349529 11.50708944 -173.375 10.1875 C-172.22584106 10.06121216 -171.07668213 9.93492432 -169.8927002 9.80480957 C-135.47783955 6.03239548 -100.96245199 2.88987635 -66.37124634 1.29464722 C-64.73454949 1.21868932 -63.09798338 1.13989037 -61.46151733 1.05911255 C-40.97602312 0.06399959 -20.50427617 -0.01424984 0 0 Z M-14.0625 155.9375 C-14.96047302 156.01600189 -15.85844604 156.09450378 -16.78363037 156.17538452 C-32.71526618 157.07087529 -32.71526618 157.07087529 -45.625 165.1875 C-47.62096216 169.35298625 -48.187464 172.62601631 -48.19113445 177.22929859 C-48.1943589 178.2521306 -48.19758335 179.27496261 -48.2009055 180.32878953 C-48.1993569 181.45084517 -48.1978083 182.57290081 -48.19621277 183.72895813 C-48.19847833 184.92235674 -48.20074388 186.11575534 -48.20307809 187.34531754 C-48.20831963 190.65940157 -48.20906187 193.97343142 -48.20788372 197.28751576 C-48.20767982 200.86173017 -48.21319765 204.43593646 -48.21794128 208.01014709 C-48.22625303 215.015766 -48.22899643 222.0213765 -48.22955366 229.02699993 C-48.23002891 234.72614822 -48.23208412 240.42529373 -48.23525429 246.12444115 C-48.24406504 262.29405837 -48.24867342 278.46366896 -48.24792381 294.6332886 C-48.24788386 295.50526283 -48.2478439 296.37723707 -48.24780273 297.27563477 C-48.24776185 298.14867885 -48.24772097 299.02172293 -48.24767885 299.92122289 C-48.24727305 314.04667343 -48.2568248 328.17209723 -48.2709411 342.29754005 C-48.28533189 356.8127503 -48.29220969 371.32794754 -48.29134732 385.8431651 C-48.29101612 393.9875245 -48.29372927 402.13185592 -48.30452538 410.27620888 C-48.31366635 417.21646857 -48.31577654 424.15668762 -48.30901595 431.09695075 C-48.30576779 434.63295554 -48.30563158 438.16888254 -48.3143692 441.70487976 C-49.84592062 468.54609583 -49.84592062 468.54609583 -39.4375 492 C-30.00335195 499.05778834 -16.32745698 498.34455499 -5.13671875 498.390625 C-4.00382416 498.39763931 -2.87092957 498.40465363 -1.70370483 498.41188049 C1.94757063 498.42935019 5.59868424 498.4357356 9.25 498.4375 C10.49258575 498.43817474 11.73517151 498.43884949 13.01541138 498.43954468 C39.36137658 498.41674871 64.26237777 496.44046406 89.9375 490.1875 C90.70030273 490.00493652 91.46310547 489.82237305 92.24902344 489.63427734 C132.07933455 479.8350436 167.01747819 455.26780634 188.65722656 420.47387695 C213.78048914 378.92671334 223.27257997 322.80576672 212.30322266 275.44921875 C206.22937382 251.13662923 196.26009986 229.3012337 179.9375 210.1875 C178.79474609 208.81658203 178.79474609 208.81658203 177.62890625 207.41796875 C172.29988036 201.23401892 166.38400457 196.17209233 159.9375 191.1875 C159.03515625 190.45789063 158.1328125 189.72828125 157.203125 188.9765625 C131.94817948 169.09352528 100.47757139 159.17470397 68.9375 155.1875 C68.27002243 155.10057892 67.60254486 155.01365784 66.9148407 154.92410278 C61.14431708 154.22150653 55.44278326 153.99749545 49.6328125 153.94921875 C48.6515036 153.93951553 47.6701947 153.92981232 46.65914917 153.91981506 C43.46022428 153.89483106 40.26151293 153.88226399 37.0625 153.875 C35.96711914 153.87238159 34.87173828 153.86976318 33.74316406 153.86706543 C17.73744254 153.86299539 1.87625115 154.46845594 -14.0625 155.9375 Z " fill="#FFFFFF" transform="translate(2281.0625,519.8125)"/>
<path d="M0 0 C1.69270271 -0.01052147 1.69270271 -0.01052147 3.41960144 -0.02125549 C7.04019203 -0.03866061 10.66061911 -0.04510754 14.28125 -0.046875 C15.51767242 -0.04754974 16.75409485 -0.04822449 18.02798462 -0.04891968 C35.83102092 -0.03346001 53.1809598 0.33731127 70.78125 3.203125 C71.90772949 3.37473145 73.03420898 3.54633789 74.19482422 3.72314453 C106.66525997 8.71893961 138.21192754 17.80041712 167.78125 32.203125 C168.69374512 32.64640137 169.60624023 33.08967773 170.54638672 33.54638672 C185.06897277 40.67980948 198.58895125 48.84432454 211.78125 58.203125 C212.5252002 58.72938477 213.26915039 59.25564453 214.03564453 59.79785156 C222.52568847 65.8553008 230.39909343 72.33473165 237.953125 79.5234375 C240.26605012 81.714966 242.60976162 83.82187312 245.03125 85.890625 C252.18943446 92.09940815 258.70604832 98.94054994 264.78125 106.203125 C265.4616333 107.01281738 265.4616333 107.01281738 266.15576172 107.83886719 C327.02409829 180.55406121 354.8216466 275.24340565 353.66967773 379.46264648 C353.60382724 383.75070532 353.5600156 388.03865789 353.52203083 392.32704163 C353.35607435 409.99813012 352.81647042 427.58242343 351.375 445.19921875 C351.31454309 445.94488035 351.25408619 446.69054195 351.19179726 447.45879936 C344.33113418 530.30112031 314.0607667 606.19805309 258.03125 667.73046875 C256.43643191 669.48310738 254.8543313 671.24735685 253.28125 673.01953125 C249.06673744 677.74158419 244.85811729 682.21747036 240.0078125 686.28515625 C237.75607748 688.22480869 235.60683766 690.25476472 233.45458984 692.3034668 C226.00136691 699.35793439 218.05407895 705.60670062 209.80664062 711.70410156 C207.98204934 713.05451025 206.1699197 714.41993159 204.359375 715.7890625 C150.95312287 755.63600735 83.49291779 773.48606793 17.53125 773.390625 C16.36021729 773.38971863 16.36021729 773.38971863 15.16552734 773.38879395 C-60.14411247 773.23199447 -139.19769665 754.98815242 -200.21875 709.203125 C-200.83830566 708.7405127 -201.45786133 708.27790039 -202.09619141 707.80126953 C-210.97456336 701.1264967 -219.23321241 693.91743185 -227.21875 686.203125 C-227.92612305 685.5229834 -228.63349609 684.8428418 -229.36230469 684.14208984 C-238.62309849 675.19579118 -247.3566714 666.18645375 -255.00830078 655.81933594 C-256.20083893 654.22704014 -257.44205053 652.67157599 -258.68359375 651.1171875 C-306.36487836 591.30843555 -325.95469989 511.69862591 -334.21875 437.203125 C-334.39881592 435.62217041 -334.39881592 435.62217041 -334.58251953 434.00927734 C-338.44052116 398.52831152 -337.74290925 361.59308491 -333.21875 326.203125 C-333.09146515 325.2065387 -333.09146515 325.2065387 -332.96160889 324.18981934 C-329.27331757 295.64431135 -322.92797193 267.63807564 -314.21875 240.203125 C-313.89712891 239.18895508 -313.57550781 238.17478516 -313.24414062 237.12988281 C-298.27020771 190.60063091 -275.63846738 146.9997587 -243.21875 110.203125 C-242.53167969 109.40519531 -241.84460937 108.60726562 -241.13671875 107.78515625 C-230.49895136 95.6422363 -219.01130965 84.06482444 -206.21875 74.203125 C-205.167326 73.35265919 -204.11795407 72.49965209 -203.0703125 71.64453125 C-146.96906086 26.1651818 -72.20309231 0.30162504 0 0 Z M-75.19140625 183.79296875 C-80.40535147 189.53680677 -84.91698299 195.75807477 -89.21875 202.203125 C-89.59950684 202.77160156 -89.98026367 203.34007812 -90.37255859 203.92578125 C-117.75085964 245.53018055 -130.09758643 297.01148757 -133.21875 346.203125 C-133.26005035 346.84829071 -133.30135071 347.49345642 -133.34390259 348.15817261 C-134.119708 360.57262792 -134.42181067 372.95318366 -134.40625 385.390625 C-134.40564575 386.29565765 -134.4050415 387.20069031 -134.40441895 388.13314819 C-134.27408835 460.7725861 -121.88245942 539.5397919 -69.09375 593.703125 C-48.06959882 614.62230979 -20.06111994 627.29470944 9.78125 627.578125 C42.36643266 627.26866071 70.41529428 612.15474909 92.96582031 589.44116211 C99.31717397 582.8535184 104.75720938 575.84040287 109.78125 568.203125 C110.16297363 567.62836426 110.54469727 567.05360352 110.93798828 566.46142578 C132.44536892 533.61869698 143.38493651 494.48076672 149.53125 456.078125 C149.73024902 454.84118896 149.92924805 453.60425293 150.13427734 452.32983398 C153.27319973 431.58465551 154.15734896 410.91577139 154.09375 389.953125 C154.09151428 388.12110535 154.09151428 388.12110535 154.0892334 386.2520752 C154.04516447 366.08231878 153.22721415 346.22244094 150.78125 326.203125 C150.63671387 324.96868652 150.49217773 323.73424805 150.34326172 322.46240234 C147.52252085 298.88750604 142.76522978 275.5984996 134.78125 253.203125 C134.50619629 252.42904297 134.23114258 251.65496094 133.94775391 250.85742188 C124.28258012 224.18961016 110.63614538 199.55361839 90.78125 179.203125 C90.13027344 178.49027344 89.47929687 177.77742188 88.80859375 177.04296875 C70.28836139 157.26446158 43.30201573 147.1673303 16.63671875 146.07421875 C-18.84094505 145.46603023 -50.70369789 157.88146741 -75.19140625 183.79296875 Z " fill="#FFFFFF" transform="translate(3500.21875,793.796875)"/>
<path d="M0 0 C2.05216762 1.86762817 4.08275473 3.75681042 6.10546875 5.65625 C8.35895801 7.75387833 10.64980789 9.7602786 13.00390625 11.7421875 C17.70609856 15.84697013 21.76507059 20.44062511 25.81640625 25.1796875 C26.29207031 25.73237305 26.76773438 26.28505859 27.2578125 26.85449219 C41.21269591 43.17385393 53.0202004 61.08086911 62.81640625 80.1796875 C63.32026855 81.16146973 63.82413086 82.14325195 64.34326172 83.15478516 C91.47150879 136.5719253 105.33561791 195.64275399 109.81640625 255.1796875 C109.95780029 257.03339966 109.95780029 257.03339966 110.10205078 258.92456055 C111.00914968 271.80956272 111.05766435 284.7051766 111.06640625 297.6171875 C111.06774567 298.78857269 111.06908508 299.95995789 111.07046509 301.1668396 C111.06644947 317.48146242 110.6589446 333.71729965 109.50390625 349.9921875 C109.44505249 350.86414764 109.38619873 351.73610779 109.32556152 352.63449097 C107.77574794 374.9163808 107.77574794 374.9163808 101.81640625 380.1796875 C97.30184399 383.18939567 94.19208983 383.30567517 88.86066818 383.30997276 C88.14512176 383.31191619 87.42957533 383.31385962 86.69234568 383.31586194 C84.27622334 383.32120868 81.86015769 383.31941579 79.44403076 383.31771851 C77.70163924 383.32013538 75.95924828 383.32299727 74.21685815 383.32626784 C69.41428187 383.33403946 64.61171986 383.33564124 59.80913806 383.33631897 C54.63518 383.3381554 49.46123036 383.3457604 44.28727722 383.35279846 C35.31661839 383.3643353 26.34596146 383.37257375 17.37529755 383.37891769 C3.20023861 383.38923211 -10.97479679 383.40979257 -25.14984131 383.43203735 C-29.99687569 383.43951743 -34.84391016 383.44693111 -39.69094467 383.45432472 C-41.50804327 383.45710057 -41.50804327 383.45710057 -43.36185093 383.4599325 C-57.15806109 383.48086864 -70.95427385 383.49969266 -84.75048828 383.51757812 C-86.64273434 383.5200354 -86.64273434 383.5200354 -88.57320759 383.52254231 C-109.01867397 383.54883034 -129.46414216 383.56747158 -149.90961829 383.58417003 C-170.88844858 383.60158117 -191.86724334 383.63041621 -212.84604526 383.6690594 C-225.79257917 383.69247916 -238.73905517 383.70645575 -251.68561044 383.70838703 C-260.55624992 383.7104939 -269.42683177 383.72340214 -278.29744539 383.74486636 C-283.41824089 383.75691261 -288.53892197 383.76403523 -293.65973091 383.75815392 C-298.34657281 383.7528673 -303.03318105 383.76130519 -307.71998391 383.78071029 C-309.41650216 383.78529352 -311.11304319 383.78480486 -312.80955687 383.77876191 C-315.1148153 383.77128284 -317.41928902 383.78222015 -319.72449112 383.79771996 C-321.00518046 383.79907648 -322.28586979 383.80043301 -323.6053679 383.80183065 C-327.8000776 384.24478754 -330.44509254 385.25872351 -334.18359375 387.1796875 C-338.02236786 392.68749384 -336.41236847 401.51576979 -335.37109375 407.78125 C-329.00858587 441.4228013 -316.62349874 472.97842701 -294.18359375 499.1796875 C-293.41402344 500.08332031 -292.64445312 500.98695313 -291.8515625 501.91796875 C-286.13802675 508.42330158 -280.06838454 513.94285195 -273.18359375 519.1796875 C-271.69859375 520.34757812 -271.69859375 520.34757812 -270.18359375 521.5390625 C-213.13615174 565.22490889 -131.8443142 563.51507571 -64.19433594 554.6640625 C-34.93572122 550.7347371 -6.58425088 543.61078389 21.65209961 535.12182617 C36.21155355 530.7869035 36.21155355 530.7869035 42.56640625 533.2421875 C49.5943543 539.29403166 50.35608381 548.22846425 51.98828125 556.875 C52.27380181 558.33515894 52.56054081 559.79508009 52.84841919 561.254776 C53.61106735 565.1362057 54.35918773 569.02029908 55.10451508 572.90508652 C56.33417563 579.29337633 57.59180409 585.67627155 58.84467697 592.06004143 C59.30729977 594.41918262 59.76835987 596.77862598 60.22940063 599.13807678 C61.89941799 607.66366682 63.62845407 616.17072892 65.51171875 624.65234375 C65.70475586 625.52256165 65.89779297 626.39277954 66.09667969 627.28936768 C66.93998359 631.06675886 67.80105653 634.83927716 68.68261719 638.60791016 C70.56054484 646.89319298 72.44611026 655.29057547 69.69140625 663.5546875 C64.60376932 670.6773792 58.34047107 672.79302683 50.25390625 675.3671875 C48.49614868 675.93747681 48.49614868 675.93747681 46.70288086 676.51928711 C-12.14955414 695.24731439 -75.4115638 709.16003239 -137.390625 709.3828125 C-138.70258347 709.38982681 -140.01454193 709.39684113 -141.36625671 709.40406799 C-145.57620737 709.423461 -149.78610292 709.42850183 -153.99609375 709.4296875 C-154.71324554 709.43012936 -155.43039734 709.43057121 -156.16928101 709.43102646 C-177.65101142 709.43796869 -198.86540542 709.15425094 -220.18359375 706.1796875 C-221.47813477 706.00808105 -222.77267578 705.83647461 -224.10644531 705.65966797 C-307.92549679 694.4556449 -394.28974518 661.92357612 -447.91796875 593.19921875 C-448.665625 592.20277344 -449.41328125 591.20632813 -450.18359375 590.1796875 C-450.70373047 589.49825684 -451.22386719 588.81682617 -451.75976562 588.11474609 C-459.59884069 577.83087588 -466.83037559 567.43988587 -473.18359375 556.1796875 C-474.00110989 554.75900397 -474.81882595 553.33843547 -475.63671875 551.91796875 C-491.77075066 523.65623817 -503.06376242 493.65163267 -511.18359375 462.1796875 C-511.48749023 461.00921875 -511.79138672 459.83875 -512.10449219 458.6328125 C-517.27882413 438.39935227 -520.97393764 417.98547342 -523.88220215 397.31494141 C-524.15904573 395.35360165 -524.44481276 393.39352686 -524.73144531 391.43359375 C-527.41867279 372.26506054 -527.49051727 353.00679518 -527.55106354 333.68761444 C-527.55842717 331.66298823 -527.57028414 329.63842975 -527.58294678 327.61383057 C-527.70157875 301.87069279 -525.87775063 276.43278624 -521.43359375 251.0546875 C-521.30764832 250.31784729 -521.18170288 249.58100708 -521.05194092 248.82183838 C-512.99843845 201.87860965 -498.17630026 155.29357659 -476.13378906 113.00634766 C-475.18812493 111.18839825 -474.2596052 109.36238878 -473.33203125 107.53515625 C-461.76346822 85.01133239 -446.9931944 64.09048823 -430.18359375 45.1796875 C-429.53068359 44.44065186 -428.87777344 43.70161621 -428.20507812 42.94018555 C-416.50622216 29.80204219 -404.20334577 16.85685559 -390.18359375 6.1796875 C-388.85087074 5.11055359 -387.52033758 4.03868705 -386.19140625 2.96484375 C-342.13648421 -32.37645282 -288.18676674 -54.05621074 -232.37109375 -61.5078125 C-231.47720947 -61.62729248 -230.5833252 -61.74677246 -229.66235352 -61.86987305 C-151.19186059 -71.72059123 -60.15473894 -53.92422978 0 0 Z M-282.18359375 109.1796875 C-282.86035156 109.80359375 -283.53710938 110.4275 -284.234375 111.0703125 C-313.38654048 138.87879099 -326.91575736 180.9653304 -335.12109375 219.1796875 C-335.3327417 220.15196289 -335.54438965 221.12423828 -335.76245117 222.12597656 C-337.853729 232.21497315 -337.853729 232.21497315 -335.99609375 242.1171875 C-333.42675543 245.04091731 -331.01313366 246.01777658 -327.11024392 246.36317515 C-324.48673145 246.44441599 -321.8703971 246.45573932 -319.24562073 246.44711304 C-317.73260648 246.45390971 -317.73260648 246.45390971 -316.1890263 246.46084368 C-312.80508896 246.47351609 -309.42131198 246.47186547 -306.03735352 246.47021484 C-303.61288241 246.47619824 -301.18841321 246.48300335 -298.76394653 246.49057007 C-292.85970916 246.50641741 -286.95550947 246.51267919 -281.05125517 246.51379482 C-276.25212533 246.51474556 -271.45300866 246.51885713 -266.65388298 246.52519608 C-253.0454415 246.5428049 -239.43703155 246.55203533 -225.8285786 246.55053513 C-225.09519405 246.55045522 -224.3618095 246.5503753 -223.60620117 246.55029297 C-222.87192069 246.55021121 -222.13764022 246.55012945 -221.38110881 246.55004521 C-209.47731726 246.54923206 -197.57365217 246.56837791 -185.66989721 246.5965697 C-173.44522676 246.625293 -161.22061802 246.63911036 -148.99591297 246.63738215 C-142.13340121 246.63671813 -135.27102209 246.64221574 -128.40854073 246.66373825 C-121.95627323 246.68384476 -115.50421364 246.68328205 -109.05192947 246.66870499 C-106.68236953 246.66660918 -104.31279227 246.67136345 -101.9432621 246.6834259 C-98.71135929 246.69881435 -95.48043156 246.6896119 -92.24855042 246.67416382 C-91.30837383 246.68445094 -90.36819725 246.69473807 -89.39953047 246.70533693 C-83.83910384 246.64650247 -80.55892841 245.9545011 -76.18359375 242.1796875 C-67.22937052 228.54055423 -74.8862157 201.63463415 -77.87109375 186.6796875 C-86.00066229 148.8487403 -104.07578003 114.22734759 -136.93359375 92.5546875 C-184.46607936 62.26335245 -242.13497565 71.34481211 -282.18359375 109.1796875 Z " fill="#FFFFFF" transform="translate(1845.18359375,856.8203125)"/>
<path d="M0 0 C5.6851863 5.53557613 6.107663 12.25174693 6.25396729 19.81710815 C6.26581989 22.56849991 6.26704011 25.31854771 6.25878906 28.06982422 C6.26150259 29.59170702 6.26506555 31.11358851 6.26940918 32.63546753 C6.278494 36.75126947 6.27500469 40.86697065 6.26865101 44.98277426 C6.26356889 49.3022497 6.26828877 53.62171682 6.27142334 57.94119263 C6.27505733 65.19567403 6.27027959 72.45011464 6.26074219 79.70458984 C6.24986694 88.0729156 6.25337874 96.44114382 6.264395 104.8094672 C6.27349386 112.01143215 6.27474022 119.21336788 6.26951766 126.41533673 C6.26641117 130.70912658 6.26595195 135.00287071 6.27259064 139.29665756 C6.27840108 143.33669942 6.27430005 147.37661656 6.26280212 151.41664505 C6.26017486 152.89277693 6.26088725 154.36891945 6.26532745 155.845047 C6.32014047 175.93142712 6.32014047 175.93142712 2.0625 181.5625 C-5.04229562 186.51432725 -17.86006604 184.14411091 -26.1875 183.5 C-69.58817399 180.34774052 -112.3153098 189.99112408 -146.15234375 218.47265625 C-178.71910622 247.37621636 -195.31968646 286.95945753 -199 330 C-199.26731516 334.7452241 -199.41386978 339.49038642 -199.54248047 344.24121094 C-199.56225881 344.93605134 -199.58203716 345.63089175 -199.60241485 346.34678793 C-200.1780057 366.73934705 -200.3584695 387.13972199 -200.53989172 407.53885174 C-200.57089358 411.01834283 -200.60304624 414.49782219 -200.6352272 417.97730255 C-200.99794535 457.88240269 -201.05416054 497.78391885 -200.99532783 537.69017673 C-200.99114464 540.579738 -200.98729832 543.46929968 -200.98345576 546.35886142 C-200.94620141 574.31301717 -200.89551062 602.26713164 -200.82267712 630.2212176 C-200.79030548 642.75767166 -200.76945213 655.29411195 -200.75840485 667.83060288 C-200.75125379 675.45459391 -200.73480542 683.07844427 -200.70560409 690.70238337 C-200.68438848 696.46574295 -200.67875489 702.22903497 -200.67897034 707.99242973 C-200.67655102 710.34308683 -200.66898443 712.69374523 -200.65584183 715.04436684 C-200.63864533 718.25196932 -200.64003495 721.45905581 -200.64596558 724.66668701 C-200.63654493 725.58943979 -200.62712429 726.51219257 -200.61741817 727.46290755 C-200.65746829 733.9442083 -201.23559669 740.79423852 -205.6275233 745.88736987 C-211.19065835 751.20244359 -217.57373503 752.24792711 -225.1211853 752.26069641 C-225.80276943 752.26452196 -226.48435355 752.26834751 -227.18659174 752.27228898 C-229.45178602 752.28254016 -231.71672308 752.27864199 -233.98193359 752.2746582 C-235.61366509 752.27900907 -237.24539454 752.28419347 -238.87712097 752.29014587 C-243.29661442 752.30350726 -247.7160222 752.3041177 -252.1355319 752.30158257 C-255.83072488 752.30051086 -259.52590067 752.30540139 -263.22108996 752.310188 C-271.94200281 752.32127342 -280.66287258 752.3217261 -289.38378906 752.31567383 C-298.36732599 752.30963496 -307.35070627 752.32194506 -316.33421648 752.3432439 C-324.05928524 752.3608827 -331.78430423 752.36685764 -339.50939238 752.36360615 C-344.11786068 752.36179669 -348.72621722 752.36439574 -353.33466721 752.37832069 C-357.67020831 752.39093144 -362.00550594 752.38892435 -366.34104347 752.37590981 C-367.9272514 752.37355148 -369.51347663 752.37625191 -371.09966469 752.38453293 C-390.43033715 752.47813303 -390.43033715 752.47813303 -396.4375 746.625 C-400.98460342 738.98586626 -401.14945677 731.18951075 -401.11352539 722.5168457 C-401.11367248 721.57568258 -401.11381957 720.63451945 -401.11397111 719.66483623 C-401.11327183 716.50179528 -401.10541481 713.33881218 -401.09765625 710.17578125 C-401.09575917 707.88374711 -401.09432618 705.59171255 -401.09331703 703.29967785 C-401.0901882 698.30179458 -401.08392355 693.3039281 -401.07533646 688.30605125 C-401.06263536 680.83664416 -401.05592932 673.3672432 -401.05103971 665.89782738 C-401.04869386 662.3209747 -401.04612655 658.7441222 -401.04351234 655.16726971 C-401.04298472 654.44482024 -401.04245709 653.72237078 -401.04191347 652.97802891 C-401.03621188 645.40631361 -401.02814704 637.83460105 -401.02019762 630.26288784 C-400.98648739 597.92839641 -400.97925628 565.59389394 -400.97676605 533.25938681 C-400.97656178 530.69018405 -400.97631805 528.12098131 -400.97607088 525.55177855 C-400.96884514 444.45636934 -401.10793283 363.36143902 -401.32485512 282.26633738 C-401.36178941 268.4256946 -401.39338774 254.58504733 -401.421875 240.74438477 C-401.45457457 224.87917721 -401.49423522 209.01400362 -401.54279006 193.14883631 C-401.56748999 185.03261035 -401.58957239 176.91640247 -401.60334396 168.80014992 C-401.67549422 127.61839687 -402.03769747 86.45271098 -404.79442406 45.34547138 C-405.12153527 40.0221773 -405.26008612 34.70723859 -405.3125 29.375 C-405.34150391 28.35277344 -405.37050781 27.33054687 -405.40039062 26.27734375 C-405.45003503 20.40402919 -405.31163277 16.41611499 -401 12 C-394.29887893 8.04397628 -387.33157189 8.56891267 -379.74633789 8.59594727 C-378.30017063 8.59023885 -376.85400788 8.58327277 -375.40785217 8.57514954 C-371.49456584 8.55725496 -367.58150419 8.55837947 -363.66818929 8.56409192 C-360.3953985 8.56718913 -357.12265054 8.56108543 -353.84986585 8.55505317 C-346.12619247 8.54102174 -338.40262972 8.54255772 -330.67895508 8.55395508 C-322.72347957 8.56543541 -314.76834122 8.55135905 -306.81291014 8.5245586 C-299.97021368 8.50237392 -293.12762283 8.49577043 -286.28489298 8.50163502 C-282.20347322 8.50499914 -278.12226956 8.50262593 -274.0408802 8.48538399 C-270.20182149 8.46987255 -266.36326076 8.47391635 -262.52422142 8.49268913 C-261.11981422 8.49636345 -259.71536978 8.49330037 -258.31099701 8.48280334 C-250.48440575 8.42879413 -244.60644468 8.57408642 -238 13 C-232.61885155 19.48924655 -232.80731269 27.6686004 -232.3515625 35.67382812 C-232.29450134 36.63067001 -232.23744019 37.5875119 -232.1786499 38.573349 C-232.05557463 40.64394427 -231.93396402 42.71462702 -231.81365967 44.78538513 C-231.62308598 48.06418042 -231.42851905 51.34271732 -231.23291016 54.62121582 C-230.74801161 62.7622474 -230.27000397 70.90368097 -229.79174805 79.04510498 C-229.38705898 85.92969351 -228.97977264 92.81411886 -228.56903076 99.698349 C-228.37757069 102.92542082 -228.18993735 106.15270067 -228.00244141 109.38000488 C-227.88462822 111.36207174 -227.76663646 113.34412799 -227.6484375 115.32617188 C-227.59749939 116.22089706 -227.54656128 117.11562225 -227.49407959 118.03746033 C-227.22861935 122.42145183 -226.82916034 126.67730785 -226 131 C-219.54889843 121.13019149 -213.13245816 111.24393342 -206.875 101.25 C-198.93748633 88.62480376 -190.77847787 76.29370147 -181 65 C-180.29488281 64.18402344 -179.58976562 63.36804688 -178.86328125 62.52734375 C-169.68400225 52.12855551 -160.00017381 42.47290944 -149 34 C-148.20698486 33.37641602 -148.20698486 33.37641602 -147.39794922 32.74023438 C-118.51351061 10.11534774 -34.76525956 -30.90245295 0 0 Z " fill="#FFFFFF" transform="translate(3159,800)"/>
<path d="M0 0 C4.2669191 3.38928147 8.1278557 7.17415937 12 11 C12.66644531 11.59425781 13.33289062 12.18851562 14.01953125 12.80078125 C29.72725244 27.09019804 36.84995619 50.97852968 37.92578125 71.47021484 C38.69522262 95.22137382 31.08517629 118.29764261 15 136 C14.18917969 136.90363281 13.37835938 137.80726563 12.54296875 138.73828125 C-2.78215431 154.96092249 -23.95001298 165.39463541 -46.31640625 166.3125 C-59.11052395 166.6337438 -70.8717883 166.31037489 -83 162 C-84.05832031 161.62617188 -85.11664063 161.25234375 -86.20703125 160.8671875 C-99.14274583 155.85231484 -109.2835689 148.70293606 -119 139 C-119.804375 138.20722656 -120.60875 137.41445313 -121.4375 136.59765625 C-137.68095248 119.64919281 -145.4257755 96.90062163 -145.30078125 73.63085938 C-144.86380224 56.04245436 -140.12834328 38.53865985 -130 24 C-129.50113281 23.27941406 -129.00226563 22.55882812 -128.48828125 21.81640625 C-113.42339446 1.35296439 -92.87995935 -11.20747371 -67.77734375 -15.55859375 C-44.09793862 -18.32568039 -19.71070042 -13.96816795 0 0 Z M-107.6484375 27.23828125 C-122.63329981 44.83678233 -126.60795707 64.58507841 -125 87 C-122.53375289 105.05419358 -111.31044455 120.23138114 -98 132 C-82.97934416 143.34257736 -64.75524254 148.65655442 -46 147 C-33.64319643 145.0527931 -18.52421179 140.64355274 -10 131 C-11.19625 130.814375 -12.3925 130.62875 -13.625 130.4375 C-24.06647287 127.71284246 -29.71195515 113.24260484 -35.109375 104.63671875 C-40.22224617 96.68006071 -44.54867421 90.47086243 -54 88 C-56.9017852 87.70786459 -59.7727925 87.67492577 -62.6875 87.6875 C-63.44611328 87.67138672 -64.20472656 87.65527344 -64.98632812 87.63867188 C-69.01698127 87.59319155 -69.01698127 87.59319155 -72.70996094 89.00292969 C-74.77420183 92.19851835 -74.44086417 95.63012566 -74.44140625 99.31640625 C-74.45461411 100.12867172 -74.46782196 100.94093719 -74.48143005 101.77781677 C-74.52234184 104.37274624 -74.5440059 106.96732081 -74.5625 109.5625 C-74.58626148 112.16114232 -74.61432858 114.75944904 -74.65428162 117.3578949 C-74.67869839 118.97485149 -74.69350831 120.59198671 -74.69789124 122.2091217 C-74.77546627 127.77546627 -74.77546627 127.77546627 -77 130 C-78.875 130.265625 -78.875 130.265625 -81 130.25 C-81.70125 130.25515625 -82.4025 130.2603125 -83.125 130.265625 C-85 130 -85 130 -87 128 C-87.19875105 125.12397299 -87.2726722 122.34421833 -87.25878906 119.46704102 C-87.2622937 118.58399292 -87.26579834 117.70094482 -87.26940918 116.7911377 C-87.27823658 113.86198139 -87.27237329 110.93306517 -87.265625 108.00390625 C-87.26697148 105.97370863 -87.26891187 103.94351133 -87.27142334 101.91331482 C-87.27437607 97.65368588 -87.27007262 93.3941407 -87.26074219 89.13452148 C-87.24935484 83.66879632 -87.25590167 78.20326771 -87.26788712 72.73754978 C-87.27510787 68.54345718 -87.27281666 64.3494113 -87.26763153 60.15531731 C-87.26629526 58.13984084 -87.26794197 56.12436017 -87.27259064 54.10888863 C-87.27765857 51.29326234 -87.26994149 48.47795593 -87.25878906 45.66235352 C-87.26283752 44.82536423 -87.26688599 43.98837494 -87.27105713 43.12602234 C-87.24242392 39.23226344 -87.20971954 37.31457932 -85 34 C-82.88389587 33.6257782 -82.88389587 33.6257782 -80.23413086 33.62768555 C-78.74634377 33.61834236 -78.74634377 33.61834236 -77.22850037 33.60881042 C-76.15149368 33.61802017 -75.074487 33.62722992 -73.96484375 33.63671875 C-72.85702042 33.63622025 -71.74919708 33.63572174 -70.60780334 33.63520813 C-68.25650242 33.63755314 -65.9051992 33.64730659 -63.55395508 33.66381836 C-59.97649287 33.68724466 -56.39978418 33.68440286 -52.82226562 33.67773438 C-50.53645393 33.68331683 -48.25064537 33.69043026 -45.96484375 33.69921875 C-44.90200668 33.69830734 -43.83916962 33.69739594 -42.74412537 33.69645691 C-31.61413657 33.80109126 -23.04055545 35.44921931 -14.6875 43.125 C-11.08867172 49.25633707 -9.09917851 56.9221169 -10 64 C-11.92782273 71.16048444 -14.6657866 76.04530592 -21 80 C-24.93881449 82.13948121 -28.93297149 84.11674542 -33 86 C-32.175 86.94875 -31.35 87.8975 -30.5 88.875 C-29.33228106 90.24910647 -28.16569676 91.62417764 -27 93 C-26.41992188 93.66773438 -25.83984375 94.33546875 -25.2421875 95.0234375 C-19.87314071 101.42585731 -15.51889508 108.3458296 -11.21240234 115.48730469 C-10.72465332 116.28426758 -10.2369043 117.08123047 -9.734375 117.90234375 C-9.30350586 118.61898193 -8.87263672 119.33562012 -8.42871094 120.07397461 C-6.85298713 122.19818601 -5.17764718 123.51907203 -3 125 C8.44800805 115.16186808 15.4082723 100.74079669 18 86 C19.51421181 65.90379863 16.509623 46.54466646 3.31640625 30.63671875 C0.67424599 27.61822843 -2.13222481 24.80404685 -5 22 C-5.63292969 21.33484375 -6.26585938 20.6696875 -6.91796875 19.984375 C-15.83415855 11.24532804 -28.91514974 6.16333739 -41 4 C-42.7634375 3.6596875 -42.7634375 3.6596875 -44.5625 3.3125 C-69.1082891 1.08106463 -90.51777204 9.48221055 -107.6484375 27.23828125 Z M-72 47 C-74.8735506 51.44964956 -74.36761439 56.9405779 -74.375 62.0625 C-74.39949219 62.96033203 -74.42398438 63.85816406 -74.44921875 64.78320312 C-74.45308594 65.65009766 -74.45695312 66.51699219 -74.4609375 67.41015625 C-74.46915527 68.19527588 -74.47737305 68.98039551 -74.48583984 69.78930664 C-73.79914799 72.91392712 -72.52556446 74.08502631 -70 76 C-67.50218453 76.57826611 -67.50218453 76.57826611 -64.78125 76.4609375 C-63.77175293 76.45868164 -62.76225586 76.45642578 -61.72216797 76.45410156 C-60.65885254 76.42799805 -59.59553711 76.40189453 -58.5 76.375 C-57.41734863 76.35920898 -56.33469727 76.34341797 -55.21923828 76.32714844 C-40.62297957 76.3567687 -40.62297957 76.3567687 -28 70 C-25.12434239 66.72769996 -24.10831389 64.1264645 -23.6875 59.75 C-24.08891732 54.93299219 -25.2012492 52.9333795 -28 49 C-34.65245995 44.01065503 -41.84823122 44.81375553 -49.84448242 44.81469727 C-51.92712852 44.81251089 -54.00924437 44.7943341 -56.09179688 44.77539062 C-57.41115234 44.77345703 -58.73050781 44.77152344 -60.08984375 44.76953125 C-61.29503662 44.76542236 -62.50022949 44.76131348 -63.74194336 44.75708008 C-66.95767331 44.99684413 -69.14743257 45.5259088 -72 47 Z " fill="#FFFFFF" transform="translate(4817,282)"/>
</svg>
