<?xml version="1.0" encoding="utf-8"?>
<!-- Generator: Adobe Illustrator 23.0.3, SVG Export Plug-In . SVG Version: 6.00 Build 0)  -->
<svg version="1.1" id="Layer_1" xmlns="http://www.w3.org/2000/svg" xmlns:xlink="http://www.w3.org/1999/xlink" x="0px" y="0px"
	 viewBox="0 0 800 342" style="enable-background:new 0 0 800 342;" xml:space="preserve">
<style type="text/css">
	.st0{fill:#0E809E;}
</style>
<g>
	<path class="st0" d="M176.2,270.8c5.5,0.3,10.3,2.2,14.4,5.9c5.2,4.7,10.7,9.2,14.7,15.7c0.5-2.9-0.6-4.9-1.8-6.7
		c-3.7-5.4-8-10.3-13.1-14.5c-2.8-2.2-5.9-3.9-9.3-5.1c-8.1-2.8-16.2-2.3-24.3-0.3c-6.2,1.5-12.2,3.6-18.5,5
		c-6.1,1.4-8.4-0.9-7.5-7.2c0-0.1,0.1-0.3,0.1-0.4c0.6-5.1,1-10.2,0.5-15.3c-0.4-4.6-1.7-8.7-6.5-10.7c-1.3-0.5-1.5-1.6-0.9-2.9
		c0.6-1.4,1.1-2.8,1.5-4.2c0.8-2.7,0.1-4.9-2.2-6.7c-1.2-0.9-2.3-1.9-3.4-2.9c-0.7-0.5-0.7-1-0.2-1.7c0.8-1.3,1.7-2.6,2.4-4.1
		c2.8-5.8,1.6-8.8-4.5-11c-3.1-1.1-6.2-2-9.3-3c-0.7-0.2-1.4-0.3-0.9-1.5c2.7-7.5,5.3-15.1,9-22.3c5.4-10.4,7.6-21.4,5.4-33.2
		c-1.4-7.6-0.5-14.7,3.9-21.3c3-4.4,6.5-8.3,10.1-12.3c1.7-1.9,3.4-2.3,5.9-2c13.9,1.8,27.9,2.4,41.9,2.2c2.5,0,5,0,7.5,0
		c-0.7,0.2-1.4,0.4-2.1,0.6c-22.7,6.6-38.7,20.8-46.8,42.9c-8.3,22.5-8.4,45.5-0.5,68.2c6.6,19.1,19.5,32.4,38.6,39.3
		c12.1,4.4,24.6,5,37.2,4c7.7-0.6,15.2-1.8,22.5-4.6c1.4-0.5,1.8-1.2,1.6-2.7c-1.3-6.7-2.5-13.5-3.6-20.3c-0.2-1.3-0.6-1.5-1.8-1.1
		c-9.2,3.2-18.8,4.4-28.5,3.6c-17.1-1.5-29.6-10-35.7-26.1c-6.9-18-6.7-36.4,0.1-54.4c5.5-14.3,16.1-23.3,31.4-26.1
		c11-2,21.7-0.8,32,3.3c1.6,0.6,2.1,0.4,2.5-1.3c1.5-6.6,3.1-13.2,4.8-19.8c0.5-1.8-0.1-2.5-1.7-3.1c-4.3-1.7-8.7-2.8-13.2-3.5
		c-3.2-0.5-6.4-0.8-9.6-1.2c0.8-0.4,1.6-0.4,2.3-0.5c19.5-2.7,38.6-7.1,57.3-13.1c1.4-0.4,1.7-1,1.7-2.4c-0.1-8.9,0-17.8-0.1-26.7
		c0-1.4,0.4-1.9,1.8-2.1c11.1-1.4,22.1-2.8,33.2-4.2c4.6-0.6,9.3-1.2,13.9-1.7c-9-0.8-18.1-1.3-27.1-1.9
		c-13.6-0.9-27.3-1.7-40.9-2.6c-19.2-1.3-38.4-2.9-57.6-3.6c-4.9,0-9.8,0-14.8,0c-11.3,0.4-22.5,1.8-33.7,3.3
		c-16.8,2.2-33.5,4.5-50.3,6.7c-16.8,2.2-33.6,4.3-50.3,6.5c-1.3,0.2-2.7,0.1-3.9,0.9c3.9,0.4,7.7,0.6,11.6,0.8
		c14.6,0.9,29.2,1.8,43.8,2.8c10.6,0.7,21.2,1.4,31.7,2.2c12.7,0.9,25.4,1.8,38.1,2.3c17.3,0.6,34.3-1.5,51.4-3.8
		c9.8-1.3,32.7-4.7,34.4-4.6c-1.6,0.5-32,7-45.5,9.8c-12.4,2.6-24.9,4.8-37.6,3.9c-7.6-0.5-15.2-1.3-22.8-2c-11.3-1-22.7-1.3-34-1.9
		c-1.7-0.1-1.9,0.5-1.9,1.9c0.1,6.8,0,13.6,0,20.4c0,2.5,0.7,5.2,0.2,7.5c-0.5,2.4-2.9,4.3-4.4,6.5c-8,12.2-10.6,25.2-5.9,39.2
		c1.5,4.5,1.1,8.5-0.5,12.7c-2,4.9-4.6,9.6-7,14.3c-2.8,5.4-5.7,10.8-7,16.9c-1.5,7.3,1.1,12.3,7.9,15.3c2,0.9,4.1,1.5,6.2,1.9
		c1.7,0.3,1.5,0.8,0.9,2c-3.1,5.9-2.3,9.4,3,13.6c0.3,0.3,0.6,0.5,1,0.7c1,0.5,1.3,1.2,0.9,2.3c-0.5,1.7-0.9,3.4-1,5.2
		c-0.2,2.5,0.5,4.3,3,5.3c2.7,1.1,4.2,3.3,4.9,6.1c1.1,4.6,0.9,9.2,0.6,13.8c-0.2,2.9-0.3,5.8,0.2,8.7c0.9,4.8,3.8,7.6,8.5,8
		c1.8,0.2,3.7,0.1,5.5-0.2c5.8-0.8,11.4-2.6,17-4.1C160.7,272.4,168.2,270.4,176.2,270.8z M265.2,112c-7.6,0-13.7,6.1-13.7,13.8
		c0,7.6,6.3,13.7,13.9,13.6c7.5-0.1,13.5-6.2,13.5-13.7C278.9,118.1,272.9,112,265.2,112z M272.8,133.5c-1.6-2-2.5-4.5-4.7-6.1
		c2.9-1.1,4.1-2.6,3.7-4.7c-0.4-2.3-1.8-3.2-4.9-3.3c-1.8,0-3.7,0-5.5,0c-0.9,0-1.3,0.3-1.3,1.3c0,4.1,0,8.1,0,12.2
		c0,0.7,0.1,1.2,1,1.2c0.8,0,1.1-0.4,1-1.1c0-1.4,0-2.7,0-4.1c0-0.6-0.1-1.3,0.8-1.3c1.8-0.1,3.5-0.1,4.6,1.8
		c0.7,1.2,1.6,2.2,2.2,3.4c0.5,1,1.2,1.4,2.3,1.3c-4.4,3.8-11.2,3.2-15.1-1.3c-3.9-4.5-3.4-11.3,1.2-15.3c4.4-3.9,11.3-3.5,15.2,0.9
		C277.3,122.8,277.1,129.6,272.8,133.5z M262.1,124.3c-0.1-3.2-0.1-3.2,3.2-3.2c0.8,0,1.6-0.1,2.4,0c1.2,0.2,2,0.9,2.1,2.1
		c0,1.2-0.6,2-1.8,2.3c-1.6,0.4-3.2,0.2-4.9,0.3c-0.7,0-1-0.3-1-1C262.1,124.7,262.1,124.5,262.1,124.3z"/>
	<g>
		<path class="st0" d="M749.9,110.8c-7.7,0-15.3,0.1-23-0.1c-3.1-0.1-3.5,1.1-3.5,3.7c0.1,34.8-0.4,69.6,2.3,104.4
			c0,0.6,0.5,1.5-0.6,1.9c-0.2-0.4-0.5-0.6-0.6-1c-14.8-36.9-34.9-71.1-52.6-106.5c-0.8-1.6-1.7-2.6-3.7-2.5
			c-8.9,0.1-17.9,0.1-26.8,0c-2,0-2.9,0.6-2.6,2.6c0.1,0.5,0,1,0,1.5c0,48.3,0,96.7-0.1,145c0,3.4,0.9,4.3,4.2,4.2
			c6.4-0.3,12.8-0.2,19.1,0c2.6,0.1,3.5-0.7,3.5-3.4c-0.2-7.4-0.1-14.8-0.1-22.2c0-26.4-0.1-52.8-1.3-79.2
			c-0.1-3.2-0.4-6.3-0.6-10.3c0.8,1,1.1,1.2,1.3,1.5C680,189,701,224.6,719.5,261.5c0.7,1.4,1.4,2.5,3.4,2.4
			c9.1-0.1,18.1-0.1,27.2-0.2c0-42.2,0-84.4,0-126.6C750,128.4,749.9,119.6,749.9,110.8z"/>
		<path class="st0" d="M450.3,145.8c-3.6-19.8-18.7-32.5-40.6-35.1c-17.3-2-34.6-1.1-51.8,1.2c-3.8,0.5-4.6,1.8-4.6,5.4
			c0.2,23.6,0.1,47.2,0.1,70.8c0,24.1,0.1,48.2-0.1,72.3c0,2.9,0.8,3.7,3.6,3.6c7.3-0.2,14.5-0.2,21.8,0c3.3,0.1,4-0.9,3.9-4.1
			c-0.2-16.6,0-33.2-0.1-49.7c0-2.7,0.7-3.4,3.4-3.2c8.3,0.6,16.5,0.3,24.7-1.4C445.6,198.1,454.9,171.1,450.3,145.8z M422,160.3
			c-1.9,16-12.1,24-30.3,23.9c-9.2-0.1-9.2-0.1-9.2-9.2c0-12.8,0-25.5,0-38.3c0-2,0.3-3.4,2.7-3.6c6.1-0.7,12.2-1.2,18.3,0.1
			C416.5,136.2,423.6,146.7,422,160.3z"/>
		<path class="st0" d="M625.2,200c-2.3-25.9-17.7-46.6-44.7-49.2c-21-2-43,6.8-52.7,29.7c-6.4,15-7,30.6-3.4,46.1
			c4.7,20.2,16.8,34.1,37.7,38.2c20.5,4.1,38.6-1,52-18c8.9-11.3,11.5-24.8,11.2-38.9C625.2,205.4,625.4,202.7,625.2,200z
			 M592.3,228.8c-1,2.6-2.2,5.2-3.8,7.5c-7.7,11-21.4,11.1-29.1,0.2c-5.9-8.4-7.2-18.1-7.2-28c0-8.9,1.2-17.5,5.5-25.5
			c2.9-5.4,7.1-9.3,13.4-10.3c8-1.2,13.9,2,18.1,8.7c3.3,5.3,5,11.2,5.7,17.3C596.1,208.8,595.9,218.9,592.3,228.8z"/>
		<path class="st0" d="M335.6,175.8c-5.2-12.4-14.2-20.7-27.5-23.9c-23.8-5.7-46.5,5.7-56.4,28.4c-6.8,15.8-7.9,32.1-3.7,48.7
			c4.5,17.5,15.3,29.6,32.9,34.5c17.5,4.9,34.8,2.7,51.9-2.8c2.4-0.8,2.4-2.2,2-4.1c-1-4.7-2.1-9.4-2.9-14.2
			c-0.4-2.5-1.2-3.1-3.7-2.2c-8.5,2.9-17.4,4-26.4,3.7c-15.8-0.6-25.4-8.8-27.8-23.2c-0.5-3,0.5-3.4,3.1-3.4c9.9,0.1,19.9,0,29.9,0
			c10.1,0,20.2-0.1,30.2,0c2.2,0,3.1-0.5,3.3-2.9C341.8,201.2,340.8,188.2,335.6,175.8z M310.8,197c-5.7-0.1-11.4,0-17.2,0
			c-5.7,0-11.4-0.1-17.2,0c-2.3,0-2.8-0.7-2.4-2.9c1-5.6,2.7-10.9,6.1-15.4c8.6-11.4,24.9-9.6,30.8,3.3c1.7,3.9,2.5,8,2.7,12.2
			C313.7,196.3,313,197,310.8,197z"/>
		<path class="st0" d="M518,150.6c-9.3-0.4-16.8,3.3-23,10c-3,3.3-4.9,7.3-7.7,11.1c-0.3-5.3-0.7-10.5-1-15.8
			c-0.1-2.2-0.9-3.1-3.3-3c-6.4,0.2-12.8,0.2-19.1,0c-2.5-0.1-3.4,0.6-3.2,3.2c0.4,5.2,0.6,10.4,0.6,15.7c0.1,29.5,0.1,59,0.1,88.4
			c0,3,0.7,3.9,3.8,3.8c7.1-0.2,14.3-0.3,21.4,0c3.8,0.2,4.6-1,4.6-4.6c-0.2-18.8-0.2-37.5,0.1-56.3c0.2-12.9,7.3-21.7,18.4-24
			c3.2-0.6,6.4-0.5,9.5-0.2c2.2,0.2,2.9-0.5,2.9-2.7c-0.1-7.1-0.2-14.3,0-21.4C522.2,151.5,520.8,150.7,518,150.6z"/>
	</g>
</g>
</svg>
