<svg width="25" height="24" viewBox="0 0 25 24" fill="none" xmlns="http://www.w3.org/2000/svg">
<path d="M7.66036 2H5.76036C3.57036 2 2.42036 3.15 2.42036 5.33V7.23C2.42036 9.41 3.57036 10.56 5.75036 10.56H7.65036C9.83036 10.56 10.9804 9.41 10.9804 7.23V5.33C10.9904 3.15 9.84036 2 7.66036 2Z" fill="#0e809e"/>
<path opacity="0.4" d="M19.0904 2H17.1904C15.0104 2 13.8604 3.15 13.8604 5.33V7.23C13.8604 9.41 15.0104 10.56 17.1904 10.56H19.0904C21.2704 10.56 22.4204 9.41 22.4204 7.23V5.33C22.4204 3.15 21.2704 2 19.0904 2Z" fill="#0e809e"/>
<path d="M19.0904 13.43H17.1904C15.0104 13.43 13.8604 14.58 13.8604 16.76V18.66C13.8604 20.84 15.0104 21.99 17.1904 21.99H19.0904C21.2704 21.99 22.4204 20.84 22.4204 18.66V16.76C22.4204 14.58 21.2704 13.43 19.0904 13.43Z" fill="#0e809e"/>
<path opacity="0.4" d="M7.66036 13.43H5.76036C3.57036 13.43 2.42036 14.58 2.42036 16.76V18.66C2.42036 20.85 3.57036 22 5.75036 22H7.65036C9.83036 22 10.9804 20.85 10.9804 18.67V16.77C10.9904 14.58 9.84036 13.43 7.66036 13.43Z" fill="#0e809e"/>
</svg>
